<svg xmlns="http://www.w3.org/2000/svg" xmlns:xlink="http://www.w3.org/1999/xlink" width="180" height="258.228" viewBox="0 0 180 258.228"><defs><style>.a{fill:#5a4244;}.b{fill:#806871;}.c{fill:#bc958e;}.d{fill:#443233;}.aa,.ab,.e,.w,.y,.z{opacity:0.72;mix-blend-mode:screen;isolation:isolate;}.e{fill:url(#a);}.f{fill:#bb1e55;}.g{fill:#dca036;}.h{fill:#ffcf01;}.i{fill:#75366a;opacity:0.85;}.j{fill:#ffecbc;}.k{fill:#ffe384;}.l{fill:#f21c54;}.m,.n{fill:#932b54;}.m{opacity:0.52;}.o{fill:#e11d51;}.p{fill:#f83e7e;opacity:0.63;}.q,.r,.s,.t,.u,.v{fill-rule:evenodd;}.q{opacity:0.41;fill:url(#b);}.r{fill:#6e203f;}.s{fill:#fcc500;}.t{fill:#f39c00;}.u{fill:#faea65;}.v{fill:#fbe62b;}.w{fill:url(#c);}.x{fill:#fbc7bd;}.y{fill:url(#d);}.z{fill:url(#e);}.aa{fill:url(#f);}.ab{fill:url(#g);}.ac{fill:#f7e641;}</style><radialGradient id="a" cx="0.709" cy="0.087" r="1.006" gradientTransform="translate(0.146) scale(0.709 1)" gradientUnits="objectBoundingBox"><stop offset="0" stop-color="#bc958e"/><stop offset="1"/></radialGradient><linearGradient id="b" y1="0.5" x2="1" y2="0.5" gradientUnits="objectBoundingBox"><stop offset="0" stop-color="#483334"/><stop offset="1" stop-color="#21141a"/></linearGradient><radialGradient id="c" cx="0.843" cy="0.2" r="0.72" gradientTransform="translate(0.063) scale(0.873 1)" gradientUnits="objectBoundingBox"><stop offset="0" stop-color="#e1f14d"/><stop offset="1"/></radialGradient><radialGradient id="d" cx="0.843" cy="0.2" r="0.716" gradientTransform="translate(0.001)" xlink:href="#c"/><radialGradient id="e" cx="1.339" cy="0.212" r="0.607" gradientTransform="translate(-0.772) scale(2.543 1)" xlink:href="#c"/><radialGradient id="f" cx="1.099" cy="0.009" r="1.225" gradientTransform="translate(-0.11) scale(1.219 1)" xlink:href="#c"/><radialGradient id="g" cx="0.998" cy="0.261" r="1.228" gradientTransform="translate(-0.083) scale(1.166 1)" xlink:href="#c"/></defs><g transform="translate(702.081 -151.643)"><path class="a" d="M-612.812,334.4c-1.071-5.734,3.759-10.466-.487-15.735a3.442,3.442,0,0,0-2.528-1.03c-1.713.142-.548-4.468-.426-5.365a12.9,12.9,0,0,1,2.144-5.989c1.379-1.871,1.818,1.561,1.769,1.87a8.762,8.762,0,0,1-1.021,2.423,41.284,41.284,0,0,1-6.138,8.251l2.4-.445c2.154-2.476,13.2-10.817,11.984-2.976-.531,3.426-4.872,2.455-7.172,2.094a12.5,12.5,0,0,0-6.374.371c-.178.062-1.51.57-1.1.912,1.7,1.414,3.553,2.428,4.962,4.19,2.369,2.962.539,7.792-.207,11.037-.08.349,1.536-.071,1.7-.437,1.557-3.529,2.322-6.3,1.624-10.108-.491-2.689-3.777-4.187-5.616-5.761-.368.3-.734.609-1.1.912,3.479-1.2,7.806,1.109,11.57.225,2.18-.514,5.44-3.086,4.717-5.684-1.96-7.062-15.366,3.327-17.38,5.672-.491.573,1.992.016,2.4-.445,1.713-1.95,11.491-12.96,5.117-13.542-6.731-.617-6.95,9.6-7.028,13.977,0,.2.617.078.676.069,8.283-1.361,2.508,12.719,4.142,16.047.137.281,1.443-.213,1.383-.53Z" transform="translate(26.109 48.63)"/><path class="a" d="M-621.794,311.97c-.718-1.762-2.132-1.481-3.531-.59a23.267,23.267,0,0,0-3.308,2.792,4.608,4.608,0,0,1-7.026-1.294q-.733.381-1.468.759c3.3-.815,6.877-.958,9.607-3.25,1.329-1.117,3.7-4.7.7-5.32-4.219-.877-8.487,5.515-10.27,8.316l2.742-.854c1.885-3.411,2.281-9.911-.806-12.722-.507-.46-2.482.539-2.916.876-4.527,3.54-.339,9.4.461,13.747.055.3,3.223-.5,3.117-1.066-.735-3.935-4.968-10.081-.823-13.341l-2.914.876c2.968,2.7,2.884,9.145,1.14,12.483-.014.028,2.361-.227,2.742-.854a24.9,24.9,0,0,1,4.966-6.163c.718-.61,1.292.151,1.6.727.43.8-.358,1.964-.767,2.622-1.561,2.518-5.074,2.544-7.681,3.2-.142.036-1.588.513-1.468.759,1.4,2.863,5.133,2.7,7.739,1.73a7.866,7.866,0,0,0,2.792-1.652c1.285-1.2,3.105-3.817,4.531-1.441.072.12.88-.241.838-.342Z" transform="translate(19.667 47.002)"/><path class="a" d="M-685.948,259.829c8.407,9.387,15.64,20.137,18.462,32.55a60.634,60.634,0,0,0,7.265,18.923c1.483,2.472,3,4.918,4.412,7.431a13.26,13.26,0,0,1,.848,1.926c2.123,5.349-3.476,2.014-3.412,1.138l-2.065,1.014.953.157c.408.1,2.793-.343,2.314-1.138-2.1-3.5-6.859-13.216-12.274-8.656-5.923,4.989,5.439,9.182,9.292,10.027.643.14,3.175-1.058,2.005-1.456a23.08,23.08,0,0,0-12.748-.358c-2.547.764-6.873,4.549-2.092,6.531a6.567,6.567,0,0,0,4.892.117,29.269,29.269,0,0,0,4.07-1.812c3.153-1.647,2.559-.844.087.914-3.092,2.2-5.183,3.44-5.9,7.359-.756,4.111,2.875,8.34,2.646,12.665-.038.717,2.62.354,2.68-.433.374-5.016-3.22-9.154-2.294-14.131.833-4.478,7.466-5.1,8.9-9.383.192-.572-.889-.57-1.174-.518-3.362.627-10.292,6.45-12.757,2.476-2.273-3.665,9.745-2.614,11.428-2.034q1-.727,2-1.456a21.257,21.257,0,0,1-8.984-4.423q-2.531-2.162,1.681-2.7a13.629,13.629,0,0,1,1.9,1.971,45.414,45.414,0,0,1,4.053,6.2l2.313-1.138a10.218,10.218,0,0,0-1.452-.248c-.531-.053-2.021.294-2.064,1.014-.269,4.414,3.362,6.08,7.151,4.134,4.771-2.452-.24-9.77-1.841-12.4-2.681-4.416-5.5-8.653-7.49-13.441-2.353-5.648-2.763-11.983-5.026-17.723-3.692-9.358-10.355-16.366-17.25-23.407-.124-.125-.634.184-.526.306Z" transform="translate(5.117 34.241)"/><path class="a" d="M-636.582,270.029c-7.315,13.229-19.006,33.1-8.42,47.451,1.444,1.955,6.195,10.027,8.959,10.593,2.387.489,3.76-.457,3.3-2.959-.095-.527-1.537-.254-1.694.142-.855,2.165-1.1.472-2.208-.988-.665-.872-1.231-1.819-1.844-2.727-1.966-2.9-4.29-5.111-5.894-8.311-1.41-2.808-1.128-7.942-1.051-10.86.157-5.9,2.153-12.171,4.01-17.729,1.677-5.021,5.274-9.7,6.013-14.959.064-.461-1.061.144-1.174.348Z" transform="translate(16.776 37.422)"/><path class="a" d="M-601.642,272.164c-1.751,10.378-3.75,19.66-8.529,29.159-3.522,7-9.174,13.519-11.32,21.126-.423,1.5-1.3,7.964.883,8.8,2.141.82,3.806-.688,4.674-2.545.532-1.138-1.6-.523-1.972-.174-1.337,1.244-.827-5.69-.656-6.619,1.054-5.73,6.132-11.561,8.969-16.534,5.346-9.371,10.336-22.475,8.889-33.43-.059-.461-.881-.117-.938.221Z" transform="translate(25.416 38.123)"/><path class="a" d="M-654.917,313.894a4.7,4.7,0,0,1-9.387,0c-.327-6.051,9.063-6.021,9.387,0,.068,1.267,2.045,1.274,1.976,0a6.818,6.818,0,0,0-6.669-6.669c-3.767-.2-6.483,3.2-6.67,6.669-.2,3.767,3.2,6.483,6.67,6.67,3.765.2,6.482-3.2,6.669-6.67C-652.872,312.62-654.848,312.627-654.917,313.894Z" transform="translate(11.364 49.393)"/><path class="a" d="M-634.292,316.644a4.7,4.7,0,0,1-9.387,0c-.327-6.051,9.063-6.021,9.387,0,.068,1.267,2.045,1.274,1.976,0a6.818,6.818,0,0,0-6.669-6.669c-3.767-.2-6.483,3.2-6.67,6.669-.2,3.767,3.2,6.483,6.67,6.67,3.765.2,6.482-3.2,6.669-6.67C-632.247,315.37-634.223,315.377-634.292,316.644Z" transform="translate(17.912 50.266)"/><path class="a" d="M-616.667,319.269a4.7,4.7,0,0,1-9.387,0c-.327-6.051,9.063-6.021,9.387,0,.068,1.267,2.045,1.274,1.976,0a6.818,6.818,0,0,0-6.669-6.669c-3.767-.2-6.483,3.2-6.67,6.669-.2,3.767,3.2,6.483,6.67,6.67,3.765.2,6.482-3.2,6.669-6.67C-614.622,318-616.6,318-616.667,319.269Z" transform="translate(23.508 51.099)"/><path class="a" d="M-665.409,312.31l58.847,9.661-13.614,36.89c-14.16-1.5-27.906-3.559-40.842-7.026Z" transform="translate(11.643 51.01)"/><path class="b" d="M-667.2,311.473l65.157,10.764-5.709,10.1-57.691-8.349Z" transform="translate(11.075 50.744)"/><path class="c" d="M-650.576,314.763c.08-.543,9.861.474,21.774,2.258s21.565,3.677,21.483,4.219-9.863-.48-21.775-2.263S-650.656,315.3-650.576,314.763Z" transform="translate(16.352 51.742)"/><path class="c" d="M-630.71,320.058c-2.783-.97-4.6,2.689-2.983,4.541,1.179,1.35,5,1.075,6.449.577,6.685-2.291-.606-5.653-4.454-5.448Z" transform="translate(21.519 53.362)"/><path class="c" d="M-622.754,322.255c-3.23-.067-4.208,4.49-.2,4.464C-619.242,326.694-619.2,322.33-622.754,322.255Z" transform="translate(24.286 54.167)"/><path class="d" d="M-663.641,327.651l50.819,7.217,2.291-5.844-53.834-7.883Z" transform="translate(11.974 53.813)"/><path class="e" d="M-612.113,331.388l1.881.245,5.709-10.1-38.556-5.731c-5.358-.564-10.593-1.448-16.274-2.109-.521,8.138,5.711,17.351,9.041,24.511,3.922,8.435,8.886,12.744,18.209,14,4.111.556,8.73.677,12.659-.951Z" transform="translate(13.556 51.449)"/><path class="d" d="M-661.326,329.805c1.679,2.441,1.327,7.192,1.9,10.222.764,4.075.485,3.564,4.37,4.308,5.554,1.066,11.28,1.422,16.69,3.27-7.409-2.887-20.41-10.029-22.956-18.13Z" transform="translate(12.939 56.46)"/><path class="f" d="M-668.024,279.651c12.8,9.407,25.1,10.8,40.746,10.672,14.129-.119,27.584.219,41.589,2.08,10.766,1.432,20.544.97,29.479-5.864,5.576-4.265,13.39-15.133,14.112-22.246-4.211.4-8.323,1.623-12.566,1.718-6.012.134-11.54-.73-17.621.047-11.288,1.443-22.069,2.821-33.28.015-8.86-2.217-16.736-4.009-25.927-4.157-10.98-.179-22-2.879-32.979-3.958-7.571-.742-14.511-1.5-21.675-4.192-3.995-1.5-10.4-3.578-11.636-8.27C-692.923,259.478-679.8,271-668.024,279.651Z" transform="translate(1.365 29.797)"/><path class="g" d="M-551.665,270.712c1.451.512,1.607,3.754,1.974,4.9.242.769-11.072,6.1-12.216,6.5a35.438,35.438,0,0,1-15.21,1.866c-18.123-1.768-35.766-6.753-53.682-9-8.042-1.008-16.308-2.151-24.258-3.726-13.282-2.63-29.658-2.7-38.137-15.238a16.251,16.251,0,0,1-2.727-5.987c6.394,8.033,15.974,13.278,25.933,15.426,14.355,3.1,29.3,5.053,43.891,7.168,16.793,2.432,34.384,7.514,51.435,6.776a39.767,39.767,0,0,0,16.946-4.684c1.138-.6,4.719-4.182,5.781-4.066A1.2,1.2,0,0,1-551.665,270.712Z" transform="translate(1.955 31.236)"/><path class="h" d="M-571.023,242.912c.816-7.933,1.144-15.907,1.349-23.878.105-4.092.539-8.373.258-12.456-.188-2.727-1.145-6.005.776-8.423.651,5.29,3.158,10.109,3.53,15.585.816,12.054-3.2,24.263-4.082,36.208-.407,5.5-.24,11.015-1.007,16.491-1.412,10.1-7.665,22.7-17.018,27.786-.271-.891-1.441-2.282-1.35-3.242.221-2.327,3.848-4.71,5.377-6.155,2.223-2.107,4.47-4.5,5.609-7.392,1.568-3.985,1.538-9.384,2.261-13.612C-574.138,256.892-571.745,249.94-571.023,242.912Z" transform="translate(36.038 14.767)"/><path class="i" d="M-682.576,264.3c6.69,6.025,15.046,12.541,23.648,15.5,11.3,3.885,23.1,1.759,34.647.465,11.633-1.3,23.334.046,34.825,2.029,6.253,1.078,9.846,4.45,16.2,1.532,2.59-1.188,5.377-2.335,7.031-4.773-6.743,2.58-13.878,3.785-20.794,1.267-6.341-2.307-13.455-3.059-20.155-3.483-10.338-.653-20.857-2.34-31.147-3.613-8.81-1.088-17.546-2.765-26.318-4.079a68.15,68.15,0,0,1-9.847-2.166c-2.3-.7-6.009-1.27-7.436-3.336Z" transform="translate(6.193 35.559)"/><path class="j" d="M-571,204.976c1.643,8.88-.092,19.271-2.188,27.9a31.214,31.214,0,0,0-.892,7.608c2.275-8.1,4.287-16.507,3.952-25-.076-1.962.429-5.006-.214-6.775Z" transform="translate(40.638 16.933)"/><path class="k" d="M-572.651,239.863c1.509,10.828.381,20.656-5.581,30.256a39.127,39.127,0,0,1-4.486,5.5c2.638-4.717,5.485-9.151,7.022-14.413,1.325-4.541,1.478-9.159,2.385-13.759a39.17,39.17,0,0,0,.441-7.8Z" transform="translate(37.896 27.939)"/><path class="l" d="M-678.746,290.425c16.944,3.966,34.872,3.41,52.15,7.4,18.989,4.391,38,9.64,57.673,9.026,26.189-.817,29.953-20.982,32.149-42.373,2.122-20.67,8.99-42.058,1.871-62.5-5.257-15.084-14.474-16.154-29.093-17.251-12.2-.916-25.775-1.8-37.7-4.493-11.4-2.573-20.586-12.716-32.77-11.316-28.292,3.253-58.539,43.141-63.686,69.505-2.54,13.006-.742,37.34,9.587,47.012A20.811,20.811,0,0,0-678.746,290.425Z" transform="translate(0.923 5.445)"/><path class="m" d="M-540.613,285.884c-5.407,6.448-13.72,9.9-22.449,9.815-4.951-.05-10.124.668-15.025-.049a91.851,91.851,0,0,1-28.018-9.183c-15.163-7.852-26.72-18.973-38.624-30.961a73.644,73.644,0,0,1-8.122-9.756c-1.818-2.606-4.159-4.678-5.76-7.406-3.746-6.379-5.875-13.65-4.939-21.069.816-6.46,2.769-13.637,6.67-18.857,5.436-7.274,10.573-12.98,18.27-17.947,5.348-3.452,12.482-8.251,19.214-8.178-4.732-2.3-9.6-4-15.067-3.369-28.292,3.253-58.539,43.141-63.686,69.505-2.435,12.463-.879,35.327,8.348,45.722,1.063.539,2.128,1.067,3.179,1.6a55.364,55.364,0,0,1,6.951,4.435c.307.08.613.166.924.237,16.944,3.966,34.872,3.41,52.15,7.4,18.989,4.391,38,9.64,57.673,9.026C-551.984,306.325-544.431,297.7-540.613,285.884Z" transform="translate(0.923 5.445)"/><path class="n" d="M-669.554,262.553c-4.361-3.221-13.3-8.615-13.959-14.78-.412-3.863,3.046-8.047,4.335-11.536,5.31-14.38,5-29.94,13.408-43.3a69.568,69.568,0,0,1,22.982-21.959c-.445-.012-1.26-.038-.922,0l-1.318.439c-12.88,8.568-25.891,18.836-36.265,30.9-8.545,11.8-14.766,24.721-16.855,35.419-2.212,11.324-1.132,31.235,6,42.579a58.611,58.611,0,0,0,15.446,9.86c16.335,3.472,33.518,3.124,50.1,6.958,18.989,4.391,38,9.64,57.673,9.026a41.37,41.37,0,0,0,7.77-.945c6.811-3.183,13.064-8.168,18.872-15.628.095-.211.18-.428.27-.642C-579.605,318.119-637.082,286.523-669.554,262.553Z" transform="translate(0.923 6.133)"/><path class="i" d="M-683.232,248.116c-.282-7.612-4.262-16.835-3.228-24.163.846-6,5.484-13.287,7.811-18.963,4.647-11.321,17.134-23.08,26.337-30.965-18.192,9.755-27.285,27-35.593,45.1-6.386,13.91-10.975,29.719-8.573,45.233.964,6.226,4.154,10.824,8.309,15.4,6.988-6.587,17.295,6.958,23.837,9.523,10.22,4.006,21.194.781,31.719,2.173,5.446.721,12.176,4.892,17.545,4.179-1.867.249-8.3-4.593-10.3-5.443-3.835-1.624-7.818-2.916-11.778-4.2-8.059-2.613-15.89-5.162-23.5-8.918-5.226-2.58-11.237-3.73-15.37-7.98C-681.456,263.5-682.954,255.632-683.232,248.116Z" transform="translate(1.573 7.106)"/><path class="o" d="M-699.3,265.872c-2.036,2.132-2.814,4.083-1.854,6.962,1.918,5.742,6.664,10.554,11.369,14.1,3.763,2.834,8.794-.3,10.561-4.138,2.615-5.688,4.4-13.985,3.072-20.2-.413-1.934-.744-5.469-1.823-7.108-2.462-3.735-7.508.113-9.933,1.858C-691.874,260.195-695.817,262.225-699.3,265.872Z" transform="translate(0.164 32.468)"/><path class="o" d="M-592.257,299.245c2.527,1.2,7.179-.578,9.679-1.144,5.229-1.183,13.91-1.761,15.171-8.2,1.245-6.365-2.793-12.437-6.446-17.193-2.134-2.777-4.6-6.889-8.386-7.606-3.6-.68-6.232,3.6-7.864,6.366a31.559,31.559,0,0,0-4.392,16.379C-594.39,290.737-595.343,297.781-592.257,299.245Z" transform="translate(34.138 35.998)"/><path class="l" d="M-634.022,163.1c-.033.1-.066.2-.1.307-1.108,3.706-.386,7.723-1.63,11.424-1.34,3.984-5.966,3.748-9.224,2.079-4.526-2.32-4.927-7.6-7.927-11.159-7.714-9.143,1.252-11.195,9.071-13.432,4.6-1.316,9.9-1.132,11.237,4.34C-631.887,159.555-633.224,160.709-634.022,163.1Z" transform="translate(14.677 0)"/><path class="l" d="M-582.154,175.371c2.017-6.449,5.407-14.047,12.856-7.244,3.195,2.916,4.313,6.89,6.581,10.435,1.542,2.41,4.314,2.6,3.539,5.732-.543,2.191-4.066,3.909-5.858,4.833-4.174,2.153-11.972,5.126-16.532,2.537C-589.264,187.3-584.092,181.58-582.154,175.371Z" transform="translate(36.963 4.386)"/><path class="m" d="M-682.159,254.31c-5.667,2.449-17.433,6.822-19.421,13.35-2.016,6.628,6.793,17.349,12.552,19.719,6.1,2.511,8.687-3.671,11.068-7.96-1.92,1.329-6.844,2.84-9.026,1.216-3.489-2.594.25-10.253,2.335-12.644-.7,1.412-4.526,7.759-6.354,6.859-1.2-.59-.893-3.386-.806-4.436.56-6.684,5.676-12.178,10.752-16.1Z" transform="translate(0.066 32.596)"/><path class="m" d="M-582.529,265.476c-8.556.072-10.316,8.013-17.488,10.332,3.948-.3,7.1.875,10.578-2.061,2.747-2.319,3.618-7.168,7.35-8.271Z" transform="translate(32.404 36.141)"/><path class="m" d="M-581.821,297.377c3.869-.763,9.129-.943,12.021-4.024,3.126-3.332.714-7.037.932-10.852-.327,5.73-11.077,8.631-9.871,3.743-2.847,3.028-8.835,3.356-10.661-.75-2.606-5.865.58-13.979,4.084-18.794-6.009,3.578-8.715,11.631-8.9,18.331-.091,3.244-1.32,9.9.962,12.558C-590.746,300.509-584.906,297.986-581.821,297.377Z" transform="translate(34.114 36.53)"/><path class="n" d="M-691.973,258.2c-7.139,5.424-4.337,13.981.563,19.791,3.138,3.721,7.647,8.525,11.98,3.331-3.688,6.892-10.255,6.017-15.316,1-3.649-3.62-8.27-9.515-7.17-14.853.981-4.764,5.748-7.013,9.5-9.486Z" transform="translate(0 33.759)"/><path class="n" d="M-593.89,281.583c-.489,4.179-1.593,10.465-.457,14.525,1.331,4.759,6.25,2.763,9.823,1.935,4.237-.982,9.159-.9,12.959-3.211,1.841-1.122,4.128-3.444,4.727-5.6.439-1.572-1.6-5.9-1.559-6-1.823,4.039-2.894,7.261-7.4,9.415-3.747,1.794-10.371,2.826-13.815-.159-4.769-4.134-1.71-13.249.2-18.069a18.322,18.322,0,0,1,3.082-5.552c.942-1.086,2.466-1.97,3-3.2C-588.336,266-593.412,277.49-593.89,281.583Z" transform="translate(34.047 36.203)"/><path class="p" d="M-592.258,181.129c2.485.651,4.948,1.262,7.383,1.769,21.993,4.587,34.165,1.538,33.608,28.214-.4,19.14,3.148,43.058-3.1,61.462-10.993,32.359-60.287,9.656-76.96-6.676-12.015-11.769-18.64-27.651-27-42.117-10.184-17.624-.578-29.458,14.351-41.274C-628.109,169.949-609.7,176.555-592.258,181.129Z" transform="translate(12.552 7.496)"/><path class="q" d="M-625.615,254.449c-9.462,0-19.378-3.833-25.266-9.767-4.826-4.873-6.84-14.421-5.417-20.928,2.534-11.639,14.644-24.2,29.784-24.2l.7.009a26.64,26.64,0,0,1,22.38,13,29.261,29.261,0,0,1,1.714,27.63,19.683,19.683,0,0,1-1.236,2.385,22.466,22.466,0,0,1-1.9,2.59,25.8,25.8,0,0,1-3.095,3.258C-612.4,252.37-618.519,254.449-625.615,254.449Z" transform="translate(14.393 15.213)"/><path class="r" d="M-621.964,252.438c-9.458,0-19.372-3.835-25.263-9.768-4.826-4.872-6.839-14.423-5.419-20.93,2.537-11.636,14.647-24.193,29.784-24.193l.708.008a26.646,26.646,0,0,1,22.383,13,29.262,29.262,0,0,1,1.71,27.629,18.486,18.486,0,0,1-1.24,2.386,21.833,21.833,0,0,1-1.892,2.589,26.231,26.231,0,0,1-3.1,3.262C-608.752,250.358-614.862,252.438-621.964,252.438Z" transform="translate(15.553 14.574)"/><path class="s" d="M-616.465,220.355c-1.926-3.242-5.033-1.444-6.653,1.157,1.76.017,2,1.673,1.618,2.9-.71,2.254-4.123,3.856-6.564,4.026-2.941.2-5.233-1.889-6.552-4.1-3.6-6.035,3.063-14.482,10.113-14.491,10.1-.016,15.094,12.473,13.036,20.088-2.927,10.844-15.434,13.213-25.68,10.283-26.309-7.519-8.078-40.251,13.952-39.652,21.782.577,30.423,28.624,15.345,41.929-9.871,8.713-28.821,5.17-37.5-3.572a22.437,22.437,0,0,1-2.486-3.122c8.96,8.4,23.691,11.859,35.339,5.482,10.087-5.519,10.316-21.059,2.137-28.267-7.316-6.461-23.06-5.138-28.937,2.453-8.012,10.329,2.46,19.2,14.064,15.87C-620.928,230.1-613.376,225.556-616.465,220.355Z" transform="translate(16.488 15.53)"/><path class="t" d="M-633.158,220.041c-4.466-.671-4.253-4.627-3.894-7.83-1.527,2.523-2.348,5.656-.85,8.324a9.3,9.3,0,0,0,6.585,4.054c2.337.282,6.881-1.964,5.643-4.806C-626.466,217.962-631.468,220.3-633.158,220.041Z" transform="translate(20.125 19.23)"/><path class="t" d="M-641.085,234.861a16.871,16.871,0,0,0,5.508,1.61c6.145.951,13.4.671,18.21-3.458a13.607,13.607,0,0,0,5.051-9.988,12.789,12.789,0,0,0-1.362-6.07,14.481,14.481,0,0,1-5.037,12.457c-3.145,2.786-6.848,3.267-11.031,3.288-7.507.042-14-2.663-16.769-9.445-1.229-3.013-1.673-7.108.181-10.008C-651.286,220.982-649.9,230.054-641.085,234.861Z" transform="translate(16.797 19.559)"/><path class="t" d="M-611.227,214.277c.937,5.332,1.7,10.079-.152,15.341a18.678,18.678,0,0,1-7.881,9.54,39.086,39.086,0,0,1-6.009,2.545c6.047-.852,10.669-3.366,13.764-8.363a18.32,18.32,0,0,0,2.173-12.836,23.764,23.764,0,0,0-2.427-6.727Z" transform="translate(24.387 19.727)"/><path class="u" d="M-647.308,214.761c6.117-8.96,17.262-15.928,29.076-12.585,3.972,1.117,7.329,3.112,9.44,6.51a37.981,37.981,0,0,1,2.736,4.7c-4.195-3.7-8.7-7.619-14.611-8.536-7.57-1.182-14.24,1.186-20.379,5.159a23.566,23.566,0,0,0-5.86,5.121Z" transform="translate(17.39 15.773)"/><path class="v" d="M-618.26,213.982a22.024,22.024,0,0,1,1.477,5.194c-1.4-8.02-14.562-11.909-19.946-5.2-.775.97-.664,2.507-1.3,3.2-.8-4.5,4.667-8.444,8.872-8.971A10.659,10.659,0,0,1-618.26,213.982Z" transform="translate(20.31 17.929)"/><path class="v" d="M-635.914,227.422a18.991,18.991,0,0,0,14.025-2.3c2.528-1.649,3.934-4.086,5.168-6.62-2.2,6.207-6.118,11.454-13.756,11.4-4.058-.038-8.909-.455-11.809-3.435-2.959-3.037-2.721-8.233-1.333-11.86-.153,3.191-.54,5.287,1.115,8.208A9.848,9.848,0,0,0-635.914,227.422Z" transform="translate(18.247 19.99)"/><path class="u" d="M-633.271,218.6c3.406.916,6.985-3.219,5.569-6.105-1.4-2.847-5.432-1.072-6.749,1.005C-635.395,215.008-635.562,217.975-633.271,218.6Z" transform="translate(21.264 18.85)"/><path class="w" d="M-627.695,173.729c21.862,8.984,41.525,8.258,64.336,10.763,13.8.6,23.055,9.848,24.462,23.425,1.812,11.848-.563,23.7-1.165,35.523-.713,13.971-5.406,28.3-16.425,37.65-30.637,25.985-75.779,15.445-103.959-8.934-38.825-33.587-18.781-115.884,39.778-97.548Z" transform="translate(6.867 6.456)"/><path class="j" d="M-608.427,189.748c5.311,2,14.9,3.3,10.635-2.39a16.094,16.094,0,0,0-11.15-5.858c-4.466-.306-5.676,3.806-2.31,6.782A9.954,9.954,0,0,0-608.427,189.748Z" transform="translate(28.225 9.474)"/><path class="j" d="M-596.566,193.622c.982,2.622,5.063,4.609,7.7,3.818,3.647-1.092,2.968-5.689.274-7.394S-598.36,188.831-596.566,193.622Z" transform="translate(33.408 11.908)"/><path class="x" d="M-580.1,249.716c3.294-5.85-1.559-7.934-5.895-4.461-2.144,1.717-6.539,6.83-4.646,9.909C-587.443,260.361-581.414,252.047-580.1,249.716Z" transform="translate(35.234 29.185)"/><path class="p" d="M-683.978,254.594c-2.833.389-5.752,4.759-6.865,7.154-1.257,2.7-2.441,6.756,1.995,4.95.208,2.393-1.589,8.367.781,9.9,2.888,1.866,5.246-3.105,6.167-5.009,2.117-4.375,3.8-9.39,1.806-14.034-1.32-3.082-2.211-4.369-5.642-2.742Z" transform="translate(3.203 32.53)"/><path class="p" d="M-589.257,276.8c-.528,5.639,1.362,5.721,5.8,6.532,3.277.6,9.141,4.344,9.535-1.6.208-3.182-1.888-7.543-3.551-10.143-1.128-1.767-1.954-4.367-3.718-5.639C-587.656,261.283-588.917,273.168-589.257,276.8Z" transform="translate(35.793 35.951)"/><path class="y" d="M-584.053,265.221c-3.823,1.257-6.287,7.111-4.142,10.743,1.777,3.012,8,4.364,11.2,5.431a26.708,26.708,0,0,0,5.643,1.14c.411-4.172-2.456-7.6-5.014-10.571-1.63-1.892-5.128-7.962-7.906-6.96Z" transform="translate(35.905 35.955)"/><path class="z" d="M-679.9,262.612c-.2-2.941-1.541-11.146-6.2-7.977-2.4,1.632-3.105,5.237-3.57,7.883-.96,5.47-.241,13.528,4.839,16.982C-678.918,283.519-679.672,265.846-679.9,262.612Z" transform="translate(3.826 32.471)"/><path class="m" d="M-646.764,152.809c-3.494,1.369-4.061,6.991-2.992,10.027.931,2.646,3.113,4.574,4.034,7.2,1.061,3.028,3.8,8.016,8.1,5.576-4.919,5.543-9.7-.468-12.268-4.694-2.026-3.337-7.479-9.682-5.254-13.558,1.577-2.747,5.079-3.709,7.938-4.333Z" transform="translate(14.736 0.37)"/><path class="m" d="M-577.158,166.342c-3.474,3.007-4.172,6.829-5.711,10.948-1.277,3.416-5.234,8.691-1.117,11.52,1.842,1.266,3.851,1.141,5.473,2.975-.775-1.668-2.4-2.86-2.592-4.752-.191-1.872.834-5.159,1.326-6.983.88-3.274,2.926-9.69,6.379-11.2a4.208,4.208,0,0,1,5.047,1.141c-2.1-2.715-6.382-6.836-9.245-2.767Z" transform="translate(36.914 4.403)"/><path class="n" d="M-635.138,171.326c-5.145,7.076-16.5-.14-23.258.267,3.977.677,7.471-4.071,11.719-1.783,3.406,1.835,7.3,3.257,11.286,1.476.163-.381-.152-.285-.186-.619Z" transform="translate(13.869 5.568)"/><path class="p" d="M-570.15,169.307c-6.432-2.959-6.292,4.435-7.381,8.884-.748,3.054-3.773,9.4-.526,12.01,2.2,1.769,9.068-1.037,11.521-1.97,3.5-1.329,7.2-5.237,3.864-8.358-2.113-1.976-3.51-2.663-4.622-5.539-.868-2.244-1.277-4.063-3.736-5.028Z" transform="translate(38.909 5.392)"/><path class="p" d="M-647.952,163.27c.564,2.947,2.572,10.674,5.819,12.055,3.718,1.581,4.116-4.383,4.274-6.746.245-3.651,1.962-6.822,2.244-10.367.34-4.255-2.443-6.838-6.583-6.054C-647.826,153.224-648.942,158.094-647.952,163.27Z" transform="translate(17.083 0.119)"/><path class="aa" d="M-646.869,168.7c1.768,1.692,4.515,6.345,7.512,5.232,2.6-.966,1.5-4.9,2.25-6.977,1.481-4.1,5.375-9.478,1.518-13.454-3.117-3.949-15.876-1-16.7,5.656C-652.138,162.906-649.439,166.241-646.869,168.7Z" transform="translate(15.809 0.025)"/><path class="ab" d="M-563.167,179.7c3.607,3.468,1.888,5.912-2.244,8.026-3.385,1.732-8.42,3.678-11.826,1.028-4.054-3.157-3.835-11.207-2.381-15.6,1.772-5.367,8.224-8.516,10.893-2.09A27.267,27.267,0,0,0-563.167,179.7Z" transform="translate(38.577 5.027)"/><path class="j" d="M-572.877,170.055c-1.992.532.021,5.115,1.7,2.856.963-1.289-.39-4.15-2.034-2.856Z" transform="translate(40.758 5.741)"/><path class="j" d="M-570.739,173.6a1.5,1.5,0,0,0,.885,2.831c1.887-.174.518-2.524-.721-2.831Z" transform="translate(41.419 6.971)"/><path class="j" d="M-642.029,152.376c-2.9.816-.021,3.843,1.864,2.659,2.267-1.424-.565-3.509-2.358-2.494Z" transform="translate(18.674 0.2)"/><path class="j" d="M-639.8,159.48c2-.872,1.428-5.283-.837-2.951C-641.416,157.331-641.545,160.239-639.8,159.48Z" transform="translate(19.334 1.338)"/><path class="x" d="M-581.6,270.143a2.477,2.477,0,0,0-.481-3.117C-586.449,262.93-585.1,274.541-581.6,270.143Z" transform="translate(37.225 36.35)"/><path class="x" d="M-579.76,272.715c1.352-1.291-1.057-4.129-1.917-1.448C-582.185,272.855-581.09,273.989-579.76,272.715Z" transform="translate(38.187 37.626)"/><path class="x" d="M-685.57,256.293c-1.286,1.611-.071,4.354,1.362,2.161,1.163-1.779-1.406-3.71-1.856-1.337Z" transform="translate(5.07 33.136)"/><path class="x" d="M-682.261,262.561c.487-1.072-.532-2.528-1.706-1.8C-685.622,261.783-683.276,264.792-682.261,262.561Z" transform="translate(5.569 34.581)"/><path class="ac" d="M-620.409,272.476c4.578,1.769,8.836,1.032,13.5,1.959,4.261.847,8.963,2.154,13.415,1.576a27.222,27.222,0,0,0,7.269-2.167c-4.454-.287-8.707.922-13.209.831-4.287-.088-8.5-1.088-12.859-1.32a36.217,36.217,0,0,1-7.461-.879Z" transform="translate(25.93 38.363)"/><path class="ac" d="M-635.08,269.29c-2.744-.673-6.111-.32-8.96-.721-3.032-.426-6.029-1.046-9.055-1.5-3.493-.526-6.955-.532-10.429-1.308-3.244-.725-6.848-2.512-10.168-2.615,4.976.154,9.832,1.183,14.818,1.3a62.9,62.9,0,0,1,15.648,2.738C-640.461,267.994-637.428,268.714-635.08,269.29Z" transform="translate(9.013 35.4)"/></g></svg>