<svg xmlns="http://www.w3.org/2000/svg" xmlns:xlink="http://www.w3.org/1999/xlink" width="96" height="98.283" viewBox="0 0 96 98.283"><defs><style>.a{fill:#00a651;}.b{fill:#ffefc0;}.c{fill:url(#a);}.d{fill:#ff3e63;}.e{fill:#ff2453;}.f{fill:#fff992;}.g{mix-blend-mode:overlay;isolation:isolate;fill:url(#b);}</style><radialGradient id="a" cx="0.518" cy="0.463" r="0.491" gradientTransform="matrix(0.957, -0.358, 0.367, 0.934, -5.295, 5.422)" gradientUnits="objectBoundingBox"><stop offset="0" stop-color="#ff5773"/><stop offset="1" stop-color="#ff1d05"/></radialGradient><radialGradient id="b" cx="0.36" cy="0.369" fx="-0.03203999251127243" r="0.649" gradientTransform="matrix(0.956, -0.358, 0.367, 0.934, -4.506, 4.634)" gradientUnits="objectBoundingBox"><stop offset="0" stop-color="#fff"/><stop offset="1"/></radialGradient></defs><g transform="translate(-80.831 -572.478)"><path class="a" d="M173.772,592.994a13.486,13.486,0,0,1,.1,8.834,14.776,14.776,0,0,1-.611,1.551l-1.861,4.029-.261.564-.057.128-2.076,4.49a13.828,13.828,0,0,0-1.063,8.208,14.046,14.046,0,0,0,.356,1.5,11.841,11.841,0,0,0,.413,1.188,12.641,12.641,0,0,0,.744,1.572c.066.128.141.257.215.382l1.6,2.692.453.759.385.649,2.747,4.616a13.658,13.658,0,0,1,.76,1.459,13.5,13.5,0,0,1,.372,10.281c-.031.085-.064.166-.1.25a51,51,0,0,1-3.016,4.719c-.023.026-.049.049-.073.075a13.605,13.605,0,0,1-9.8,4.129,15.3,15.3,0,0,1-1.691-.1l-7.321-.862-2.766-.323c-.12-.014-.24-.027-.363-.036a12.9,12.9,0,0,0-1.549-.053,13.87,13.87,0,0,0-10.057,4.632c-.024.026-.044.051-.068.077l-3.391,3.861-.581.662-2.731,3.106a14.777,14.777,0,0,1-1.189,1.206,13.614,13.614,0,0,1-10.231,3.479c-.28-.02-.561-.053-.841-.094,0,0-.009,0-.014,0q-.941-.221-1.878-.476c-.214-.058-.43-.121-.645-.183-.325-.092-.648-.19-.971-.287l-.01,0c-.241-.095-.482-.2-.723-.319a13.53,13.53,0,0,1-7.076-8.125,13.852,13.852,0,0,1-.413-1.6l-.93-4.686-1.047-5.26a13.774,13.774,0,0,0-2.349-5.39c-.152-.206-.306-.407-.467-.6a13.748,13.748,0,0,0-4.378-3.572c-.3-.154-.6-.3-.91-.43l-.715-.309-4.975-2.129-3.637-1.56a14.231,14.231,0,0,1-1.491-.744,13.493,13.493,0,0,1-6.5-8.71l0,0c-.086-.844-.149-1.689-.2-2.531-.019-.35-.033-.695-.04-1.046,0-.113-.012-.23-.012-.344-.009-.367-.014-.736-.015-1.1,0,0,0-.007,0-.012l0,0a13.542,13.542,0,0,1,5.482-9.312,14.858,14.858,0,0,1,1.49-.956l5.27-2.951,3.594-2.014a14.042,14.042,0,0,0,1.774-1.184q.412-.325.8-.678a13.632,13.632,0,0,0,1.64-1.784c.154-.2.3-.406.446-.614a13.853,13.853,0,0,0,1.924-4.134c.047-.167.092-.338.128-.51a13.129,13.129,0,0,0,.315-1.9l.234-2.531.433-4.643.031-.331.24-2.593a14.065,14.065,0,0,1,.307-1.9A13.593,13.593,0,0,1,111,574.65c.213-.133.42-.259.639-.377,0,0,.01-.008.013-.009.4-.171.809-.335,1.218-.5.151-.062.307-.122.459-.181l.178-.068q.406-.156.817-.3c.157-.056.316-.108.474-.164.224-.082.446-.159.673-.233a.023.023,0,0,1,.016,0c.3-.072.591-.125.893-.169a13.582,13.582,0,0,1,9.954,2.305,14.4,14.4,0,0,1,1.495,1.208l4,3.688,1.694,1.561,1.762,1.628a13.867,13.867,0,0,0,6.136,3.277c.353.086.712.156,1.069.212a13.83,13.83,0,0,0,5.244-.165l1.373-.309.168-.039,1.086-.247,7.283-1.645a14.082,14.082,0,0,1,1.752-.285A13.437,13.437,0,0,1,168,585.841c.283.173.553.355.815.548.3.221.595.45.875.695a.02.02,0,0,1,.013.012q.414.461.82.938c.005,0,.008.01.009.013.535.63,1.059,1.272,1.563,1.931.041.052.081.1.118.155.122.162.244.324.367.49.1.138.209.278.31.418a11.564,11.564,0,0,1,.521,1.057Q173.609,592.539,173.772,592.994Z"/><path class="b" d="M172.57,594.575a12.92,12.92,0,0,1,.1,8.464,14.357,14.357,0,0,1-.588,1.486l-1.783,3.858-.247.542-.055.124-1.991,4.3a13.238,13.238,0,0,0-1.015,7.865,12.678,12.678,0,0,0,.339,1.438,11.17,11.17,0,0,0,.395,1.138,12.316,12.316,0,0,0,.714,1.507c.064.121.133.247.2.365l1.536,2.58.433.728.37.621,2.63,4.422a13.388,13.388,0,0,1,.729,1.4,12.92,12.92,0,0,1,.355,9.849c-.029.079-.058.159-.091.24a49.621,49.621,0,0,1-2.887,4.521c-.023.026-.051.045-.071.07a13.032,13.032,0,0,1-9.39,3.958,14.8,14.8,0,0,1-1.622-.1l-7.014-.827-2.649-.308c-.117-.015-.232-.026-.349-.032a12,12,0,0,0-1.482-.053,13.3,13.3,0,0,0-9.637,4.436c-.024.026-.04.05-.065.076l-3.249,3.7-.558.632-2.615,2.976a14.331,14.331,0,0,1-1.141,1.158,13.038,13.038,0,0,1-9.8,3.331c-.268-.021-.539-.049-.805-.091-.005,0-.009,0-.014,0a13.442,13.442,0,0,1-3.347-.905l-.01,0c-.23-.09-.461-.193-.692-.305a12.962,12.962,0,0,1-6.779-7.784,13.473,13.473,0,0,1-.4-1.531l-.892-4.489-1-5.043a13.269,13.269,0,0,0-2.25-5.163c-.148-.2-.295-.39-.448-.578a13.216,13.216,0,0,0-4.193-3.422c-.287-.149-.578-.285-.875-.414l-.684-.3-4.766-2.038-3.483-1.5a13.573,13.573,0,0,1-1.432-.712,12.9,12.9,0,0,1-6.116-7.931A48.152,48.152,0,0,1,83.6,621.1a12.946,12.946,0,0,1,5.178-8.429,14.617,14.617,0,0,1,1.43-.915l5.049-2.828,3.442-1.931a13.31,13.31,0,0,0,1.7-1.133c.261-.207.518-.425.765-.647a13.031,13.031,0,0,0,1.572-1.71c.147-.193.293-.39.429-.591a13.213,13.213,0,0,0,1.842-3.958c.044-.162.089-.324.123-.49a12.014,12.014,0,0,0,.3-1.815l.227-2.426.414-4.449.027-.317.231-2.482a13.568,13.568,0,0,1,.294-1.821,12.989,12.989,0,0,1,5.379-7.871l0,0c.942-.434,1.907-.838,2.886-1.215s1.95-.714,2.928-1.017a12.966,12.966,0,0,1,9.3,2.236,14.117,14.117,0,0,1,1.433,1.159l3.83,3.531,1.623,1.5,1.689,1.559a13.166,13.166,0,0,0,5.877,3.137c.335.085.68.152,1.024.2a13.19,13.19,0,0,0,5.026-.157l1.314-.3.161-.036,1.038-.237,6.978-1.575a13.525,13.525,0,0,1,1.679-.274,12.874,12.874,0,0,1,8.246,1.925c.272.164.53.338.78.523.159.114.31.23.462.351a48.825,48.825,0,0,1,3.637,4.469c.107.215.208.432.3.651C172.353,594,172.467,594.286,172.57,594.575Z" transform="translate(-0.615 -0.542)"/><path class="c" d="M170.013,597.9a11.72,11.72,0,0,1,.091,7.684,12.287,12.287,0,0,1-.534,1.351l-1.617,3.5-.223.495-.05.113-1.812,3.9a12.04,12.04,0,0,0-.917,7.142,11.289,11.289,0,0,0,.305,1.306,10.011,10.011,0,0,0,.359,1.033,11.213,11.213,0,0,0,.649,1.37c.059.11.12.223.186.329l1.395,2.345.393.658.336.566,2.389,4.015a12.524,12.524,0,0,1,.662,1.271,11.724,11.724,0,0,1,.319,8.943c-.023.072-.051.143-.082.219a44.786,44.786,0,0,1-2.621,4.1c-.02.025-.045.038-.065.063a11.83,11.83,0,0,1-8.525,3.592,12.852,12.852,0,0,1-1.473-.086l-6.367-.751-2.409-.282c-.1-.012-.209-.022-.318-.027a11.268,11.268,0,0,0-1.344-.051,12.075,12.075,0,0,0-8.748,4.032c-.022.021-.039.044-.061.065l-2.949,3.359-.508.574-2.374,2.7a12.563,12.563,0,0,1-1.037,1.05,11.829,11.829,0,0,1-8.9,3.028c-.243-.022-.487-.047-.732-.086-.005,0-.009,0-.014,0a12.338,12.338,0,0,1-3.037-.819l-.011,0c-.21-.081-.416-.177-.626-.279a11.767,11.767,0,0,1-6.156-7.068,12,12,0,0,1-.362-1.386l-.81-4.077-.91-4.58a12.012,12.012,0,0,0-2.043-4.689c-.132-.176-.268-.353-.4-.522a11.974,11.974,0,0,0-3.809-3.109c-.26-.135-.525-.258-.792-.377l-.623-.268-4.327-1.85-3.163-1.359a11.9,11.9,0,0,1-1.3-.647,11.709,11.709,0,0,1-5.541-7.156,43.348,43.348,0,0,1-.223-5.529,11.747,11.747,0,0,1,4.65-7.384,13.792,13.792,0,0,1,1.3-.831l4.583-2.564,3.127-1.754a12.489,12.489,0,0,0,1.542-1.03c.235-.188.47-.385.7-.587A12.259,12.259,0,0,0,106.606,606c.133-.174.265-.353.39-.537a12.015,12.015,0,0,0,1.671-3.594c.041-.148.079-.294.111-.443a11.369,11.369,0,0,0,.273-1.651l.208-2.2.374-4.041.026-.287.209-2.253a12.883,12.883,0,0,1,.267-1.657,11.751,11.751,0,0,1,3.924-6.414q1.782-.883,3.673-1.606t3.783-1.255a11.706,11.706,0,0,1,7.233,2.131,13.7,13.7,0,0,1,1.3,1.054l3.476,3.207L135,587.816l1.531,1.414a12.273,12.273,0,0,0,1.784,1.364,12.1,12.1,0,0,0,3.552,1.486c.305.075.619.137.931.184a11.991,11.991,0,0,0,4.563-.142l1.191-.269.15-.032.939-.216,6.335-1.43a12.964,12.964,0,0,1,1.527-.25A11.724,11.724,0,0,1,165,591.673c.246.153.481.31.707.478.064.044.124.089.189.137a43.544,43.544,0,0,1,3.559,4.29c.088.175.172.36.253.538C169.816,597.372,169.92,597.634,170.013,597.9Z" transform="translate(-1.872 -1.68)"/><path class="d" d="M158.848,613.554a16.964,16.964,0,0,1,2.687-.374,5.041,5.041,0,0,0-2.086,1.226,1.461,1.461,0,0,1,1.256-.056l-.371.142a16.322,16.322,0,0,0,4.227-1.2,3.579,3.579,0,0,1-1.714,1.084c.942,1.343,1.628-.2,2.513-.112-2,.341-3.713,1.425-5.854,1.4,1.913.543,3.77-.169,5.768-.51-1.4-.315-2.37.484-3.342,1.282.372-.142.229-.514.6-.656a11.677,11.677,0,0,1-2.46.944c-.789.3-1.368.738-1.2,1.738.656.6,1.485-.57,2.142.03l-1.486.57a4.192,4.192,0,0,0,2.142.03c-.371.143-.6.657-.971.8a1.452,1.452,0,0,1,2.141.03l-1.856.713c2.284.4-.63,2.8,1.938,3.942.514.229,1.257-.056,2.142.03-1.856.713-3.769.169-5.4.367,1.77.173,3.454,1.23,5.225,1.4-.6.656-.83,1.17-1.857.712a2.364,2.364,0,0,1,1.274-.009,13.443,13.443,0,0,0,1.374.259,9,9,0,0,1-1.647.485,8.122,8.122,0,0,1-1.623.143,7.937,7.937,0,0,1-3.147-.709c1.4.315,2.111,2.172,3.967,1.459-1.714,1.084-3.169-.488-4.567-.8a5.783,5.783,0,0,0,2.826,2.307,9.018,9.018,0,0,0,1.763.5c1.49.823,3.2-.261,4.745.426-2,.341-3.912-.2-5.682-.375,2.426.773,4.939.66,7.223,1.062-2.284-.4-4.37.825-6.969-.012a12.736,12.736,0,0,1-1.74-.48,12.93,12.93,0,0,0,1.837.652c2.274,1.178,5.244.038,7.442,1.325-2.055-.915-4.426-.431-6.734-.574a9.163,9.163,0,0,1-1.745-.43,18.181,18.181,0,0,0,1.748.524c2.448.421,4.59.451,6.787,1.738-2.141-.03-4.654.083-6.709-.833,1.684,1.057,3.825,1.087,5.738,1.631-2.284-.4-4.054-.574-6.549-1.027-.62-.142-1.237-.3-1.841-.472s-1.2-.359-1.773-.563a12.091,12.091,0,0,0,2.81,1.655c.511.225,1.037.427,1.559.605,1.938.855,4.223,1.257,6.049,2.686a62.807,62.807,0,0,0-7.279-2.317,22.065,22.065,0,0,0,3.367,2.115,13.706,13.706,0,0,0-2.1-.8c-.466-.163-.936-.321-1.4-.481a19.112,19.112,0,0,1-4.06-1.779c1.1.644,2.162,1.194,3.229,1.745s2.138,1.1,3.245,1.737c.633.607,1.518.693,2.174,1.293-.742.286-1.542-.686-2.149-.425-.865-.332-1.731-.667-1.731-.667l.907.586,1.995,1.288c.807.988,2.064.932,2.862,1.9-.427-1.114-1.627.2-2.078-1.1l-1.968-.993-1.968-1-2.121-1.07s.859.563,2,1.314l5.719,3.758-6.4-3.321.442.785-2.428-1.062,2.853,2.4,4.326,3.536.929,1.3-.847.058-1.621-.546-2.261-1.095s-.723-.42-1.446-.844c-.479-.167-.992-.4-1.507-.624a7.233,7.233,0,0,1,2.99,2.459c.488.447.977.892,1.41,1.288l1.519,1.386-1.047-.788-1.1-.831a46.776,46.776,0,0,0-9.42-6.03c2.711,1.515,4.594,4.2,7.077,6.229a22.708,22.708,0,0,1-7.82-5.945c2.91,3.143,6.278,5.258,8.218,9.2-1.313-1.2-2.854-1.886-3.425-3.372.2,1.628,1.37,2.457,2.31,3.8-2.91-3.142-5.449-6.428-9.331-8.772a35.225,35.225,0,0,1,5.393,5.172,21.221,21.221,0,0,1-3.953-3.388c-.307-.3-.611-.6-.916-.885a12.983,12.983,0,0,1-2.208-1.957c.514.229.8.971,1.531,1.325a10.5,10.5,0,0,1,.991.812,20.286,20.286,0,0,1,3.726,5.262,8.281,8.281,0,0,0-1.794-2.782,13.179,13.179,0,0,0-1.181-1.082c-1.62-.335-2.332-2.192-3.874-2.879,1.826,1.429,3.053,3.514,4.756,4.989q.532.65,1.034,1.309t.972,1.331a14.572,14.572,0,0,1-.988-1.14c-.311-.393-.608-.8-.9-1.2a8.536,8.536,0,0,0-4.3-3.806c1.826,1.429,3.653,2.858,4.137,5.228a9.074,9.074,0,0,0-3.938-3.6,5.039,5.039,0,0,0,1.226,2.086,8.9,8.9,0,0,0-5.108-4.43c.514.229,1.027.458,1.17.829l-.514-.229c.514.229,1.17.829.57,1.486-.372.142-.514-.229-1.028-.458.57,1.485.4,3.255,1.339,4.6.172-1.77-1.14-2.97-2.082-4.313-.829,1.17.484,2.37.026,3.4-.428-1.114-1.6-1.942-1.654-3.2a2.458,2.458,0,0,0,.255,2.884,5.044,5.044,0,0,1-1.226-2.085c-.086.885-.315,1.4-.4,2.284l-.57-1.486c.341,2-.717,3.683-.746,5.825-.942-1.342-.255-2.884-.082-4.654l-1.83,4.11c-.056-1.256,1.144-2.569.716-3.683a7.8,7.8,0,0,1-2.059,4.625,8.664,8.664,0,0,0,.717-3.683c-.773,2.426-1.174,4.71-1.973,7.212a9.59,9.59,0,0,0-.129,1.619,8.818,8.818,0,0,0,.181,1.7,13.347,13.347,0,0,1-.814-2.63,5.411,5.411,0,0,1-.051-1.338c.955-2.458.843-4.97,1.615-7.4l-.229.514c-.142-.371.086-.885-.056-1.256-.686,1.542-1.6,3.6-2.183,5.008-.147.442-.283.888-.405,1.339s-.23.9-.323,1.361c-.112.549-.2,1.1-.261,1.657a4.17,4.17,0,0,0-.035,3.368c-.056-1.256-.112-2.512-.135-3.64q.064-.913.221-1.824.117-.684.283-1.367t.379-1.363a17.821,17.821,0,0,1,1.03-2.711,5.679,5.679,0,0,1-1.129,2.279q-.246.591-.461,1.206a35.21,35.21,0,0,0-1.1,3.936,21.175,21.175,0,0,1,1.289-4.967c.186-.533.372-1.066.544-1.608a9.257,9.257,0,0,0,.744-3.359c-.229.514-.458,1.027-.781,1.739-.261.586-.521,1.173-.77,1.764-1.493,3.549-2.626,7.258-1.686,11.37-2.366-5.055.064-9.822,1.238-14.533-2.659,5.281-3.405,11.1-3.409,16.645-1.14-2.97-.139-5.911-.394-8.8-1.058,1.684-.574,4.054-1.8,5.6l-.717,1.194s.052-.34.135-.917a49.745,49.745,0,0,1,2.475-12.3c-1.973,3.739-2.033,8.022-3.407,12.046l-.213.885-.379-.694.162-1.03c.09-2.1,1.005-4.156.521-6.526.713,1.857-1.144,2.569-1.459,3.968a39.757,39.757,0,0,1,.976-6.338c-1.2,1.313-.346,3.541-1.348,4.883a5.592,5.592,0,0,1-.739,1.438c-.218.52-.452,1.04-.7,1.564s-.522,1.054-.813,1.592a4.237,4.237,0,0,1,.028-2.145c-.227.517-.827,1.174-1.055,1.687.1-.466.223-.928.348-1.387.368-2.3,1.283-4.352,1.685-6.636l-.572,1.285c-.171.384-.342.769-.569,1.282a9.005,9.005,0,0,0,.584-2.352,8.99,8.99,0,0,1,.587-2.356,3.021,3.021,0,0,0-.852,1.658,12.746,12.746,0,0,1-.749,1.939c-.427-1.114.173-1.77.488-2.9.188-.47.406-.94.612-1.412a11.544,11.544,0,0,0,.532-1.422c-.229.514-.971.8-1.2,1.312a2.187,2.187,0,0,0,.4-2.284,10.126,10.126,0,0,0-.893,1.291c-.708,2.306-2.137,4.132-2.4,6.787a16.422,16.422,0,0,0,1.031-5.082,16.41,16.41,0,0,1-3.4,5.566,42.525,42.525,0,0,0,2.917-7.936,2.644,2.644,0,0,0-1.286,2.2c-.056-1.256,1.144-2.569,1.2-3.755.215-.408.456-.819.721-1.24a7.686,7.686,0,0,0-.952,1.128c-1.306,1.868-1.707,4.152-3.136,5.979,1.058-1.684,1.6-3.6,2.659-5.281-1.943,1.6-3.23,3.8-5.029,5.764,1.942-1.6,2.715-4.024,3.879-6.344a13.1,13.1,0,0,1,.809-1.419c-.3.328-.573.654-.826.977-1.2,1.506-1.747,3.419-3.461,4.5,1.429-1.826,2.2-4.253,3.463-6.131a10.785,10.785,0,0,1,1-1.118,8.307,8.307,0,0,0-1.665,1.7,16.9,16.9,0,0,0-1.335,1.583,5.488,5.488,0,0,1,1.058-1.683,4.513,4.513,0,0,1-2.542,2.254,6.872,6.872,0,0,1,2.046-2.943,5.323,5.323,0,0,0,.669-1.081l-1.855.712a8.367,8.367,0,0,0,.828-1.17,8.234,8.234,0,0,1,.829-1.17,4.2,4.2,0,0,1-2.66,1.394,13.506,13.506,0,0,0-1.457.366,3.523,3.523,0,0,0-1.3.744,9.17,9.17,0,0,0,1.2-1.29,5.486,5.486,0,0,1,1.25-1.19c.427-.405.854-.823,1.252-1.275a9.574,9.574,0,0,0,1.092-1.491c-1.457,1.2-3.075,1.979-4.552,3.125a11.148,11.148,0,0,0-1.416,1.3,1.925,1.925,0,0,1,1.136-1.609,4.5,4.5,0,0,0,1.632-1.159l-1.485.57c.543-1.913,2.542-2.254,3.229-3.8l-3.713,1.425c.229-.514.971-.8,1.2-1.312-1.114.427-2.6,1-2.914,2.4.4-2.284,2.914-2.4,3.83-4.452-3.255.4-6.083,1.91-8.911,3.421,1.714-1.084,3.057-2.026,4.77-3.109l-1.485.57c.458-1.027,2.085-1.226,2.4-2.625a22,22,0,0,0-6.968,1.823,6.784,6.784,0,0,0,2.457-1.369c-1.486.57-3.026-.117-4.37.825,2.828-1.511,6.083-1.909,8.769-3.791-2.6,1-5.626.881-8.225,1.879l4.455-1.71a37.167,37.167,0,0,1-6.51.8c1.857-.713,4.226-1.2,5.8-2.651-1.542-.686-3.027-.117-4.5-.082-.481.043-.958.095-1.433.152-.951.112-1.9.239-2.858.324,1.162-.3,2.355-.525,3.566-.738.606-.107,1.217-.211,1.831-.322,1.342-.249,2.456-.677,3.71-.828.62-.177,1.24-.38,1.859-.617-4.883.6-10.051.45-14.791,1.417,2.37-.484,5.254-.739,7.624-1.223l-1.027-.458a46.246,46.246,0,0,1,7.253-1.08,24.443,24.443,0,0,1-6.783.3l-1.356.048-5.911.212,5.8-.83-.18-.471,1.227-.5-2.376-.446,4.952-.461,1.479-.184,1.479-.184-2-.167-5.714-.479,2.128-.392,2.142-.1c.659-.171,1.4-.457,2.058.143a9.369,9.369,0,0,0-3.868-.742l-1.9-.238-2.045-.256,1.738-.106c.869-.053,1.742-.1,1.742-.1,2.876-.126,6.187.733,9.071.478-3.311-.859-6.852-1.2-10.163-2.063a66.318,66.318,0,0,0,8.566.121c-3.311-.859-7.081-.69-10.077-2.948l.742-.286c-.514-.229-1.4-.315-1.913-.543.553.054,1.105.121,1.655.2,1.656.658,3.513-.054,4.894.907.535.113,1.068.228,1.6.341,1.591.338,3.151.658,4.671.873-.606-.193-1.19-.4-1.762-.6s-1.132-.418-1.692-.629a17.314,17.314,0,0,0-3.454-1.23,21.994,21.994,0,0,0,3.243.675c.569.1,1.14.2,1.688.309s1.072.227,1.55.363a8.528,8.528,0,0,0-1.013-.836,2.563,2.563,0,0,0-1.181-.449,8.184,8.184,0,0,1,1.4.314,8.283,8.283,0,0,0,1.4.315,8.859,8.859,0,0,1-1.345-.51c-.614-.317-1.271-.554-1.921-.816a8.965,8.965,0,0,1-1.876-.962,5.4,5.4,0,0,1,1.731.223c.532.15,1.024.35,1.5.521a15.794,15.794,0,0,1,3.024,1.117,5.3,5.3,0,0,1-1.381-.961c-.41-.375-.765-.763-1.078-1.054a20.542,20.542,0,0,1,1.988.651,4.855,4.855,0,0,0,2.184.28c-.214-.557-.784-.658-1.317-.816s-1.024-.375-1.026-1.132a8.692,8.692,0,0,1,1.778.547,9.5,9.5,0,0,1,1.679.974,12.814,12.814,0,0,1-1.482-1c-1-1.027-2.171-1.856-2.37-3.483.57,1.485,2.482,2.029,3.653,2.858l-.428-1.114c.514.229,1.028.458,1.17.829.173-1.77-.825-4.37-3.109-4.771,2.142.03,4.339,1.317,4.68,3.316-.854-2.228-2.081-4.313-4.594-4.2,2.884-.255,3.739,1.973,5.194,3.544-.057-1.256-.113-2.513-1.283-3.342.657.6.942,1.343,1.6,1.943a5.978,5.978,0,0,0-3.053-3.514,3.1,3.1,0,0,1,2.055.915l-.285-.742a2.833,2.833,0,0,1,1.969,1.8,41.987,41.987,0,0,0-4.3-9,6.945,6.945,0,0,1,3.2,3.885c-1.226-2.085-.739-5.254-2.708-7.054a1.055,1.055,0,0,0,1.542.686,3.4,3.4,0,0,1-1-2.6c.29.386.556.769.8,1.151,1.245,1.908,2.081,3.777,3.531,5.7.315-1.4-.855-2.228-.911-3.484.285.742.8.971,1.455,1.571-.57-1.485-1.511-2.828-1.339-4.6.142.372.427,1.114.941,1.343-.855-2.228-1.339-4.6-2.936-6.541,2.111,2.171,2.509,5.426,4.249,7.741-.57-1.485-1.654-3.2-1.482-4.97l2.566,6.683a64.485,64.485,0,0,0-2.764-8.31,64.4,64.4,0,0,1,3.507,8.026c-1-2.6-1.253-5.483-2.622-7.939.626,2.742,2.738,4.913,3.364,7.654-1.8-3.57-2.621-7.94-4.789-11.368,2.91,3.143,3.735,7.513,6.046,11.312.258-2.655-2.082-4.314-1.823-6.969l3.7,9.654c-.825-4.369-2.907-8.682-3.36-13.194l2.138,5.57c.173-1.77-.4-3.256-.6-4.883.056,1.256,1.226,2.085,1.654,3.2a23.144,23.144,0,0,1-1.594-7.482c1.339,4.6,2.678,9.2,4.387,13.651-.825-4.369-2.906-8.682-1.219-13.163.169,3.769,2.794,6.169,4.077,9.511a4.2,4.2,0,0,0,.028-2.147,6.965,6.965,0,0,1,.032-2.136c1.6,1.942,2.082,4.313,2.565,6.683a46.8,46.8,0,0,0-.251-8.423c.483,2.37,0,5.539,1.965,7.339a4.513,4.513,0,0,1-.026-3.4c1.091,1.178-.146,2.532.311,3.774a2.377,2.377,0,0,0,1.174,1.2c-.06-1.261.4-2.289.342-3.546-.315,1.4.626,2.742.311,4.14-.2-1.627,1-2.94-.082-4.654,1.542.686-.4,2.284,1.14,2.97.086-.886.03-2.142.117-3.027a26.873,26.873,0,0,1,1.252,5.483,3.268,3.268,0,0,1,1.144-2.569c.942,1.342-.258,2.655.682,4-1.455-1.571,1.429-1.826.859-3.311-.086.885-1.058,1.684-.259,2.655a2.586,2.586,0,0,1,.461-1.295,1.678,1.678,0,0,1,1.337-.672,2.463,2.463,0,0,0-.92,1.9,4.465,4.465,0,0,1-.537,2.07,8.558,8.558,0,0,1,.768-1.467,2.718,2.718,0,0,1,1.26-1.016c-.6.656-1.942,1.6-1.057,1.683.77.343,1-.17,1.238-.795s.485-1.346,1.291-1.41c-.479.365-.448.983-.418,1.609s.058,1.254-.427,1.654c.265-.421.506-.833.734-1.24.924-1.1.725-2.728,2.352-2.927l-.229.514a2.186,2.186,0,0,0,1.43-1.826l-2.059,4.625c2.742-.626,3.886-3.2,5.685-5.165-.086.886-1.571,1.455-1.144,2.57.6-.657,1.714-1.084,2.314-1.741.057,1.257-1.058,1.684-1.515,2.712,2.228-.855,3-3.282,4.572-4.737-.458,1.027-1.058,1.684-1.515,2.711l.742-.285a22.555,22.555,0,0,0-3.686,4.823c1.571-1.455,2.63-3.139,4.628-3.481l-.458,1.028c1.572-1.455,2.772-2.768,4.343-4.223-.173,1.77-2.258,3-2.43,4.767.6-.657,1.342-.942,1.942-1.6a17.176,17.176,0,0,1-3.5,4.276L155.371,602,156.952,601l-1.56,2.086-.722,1.207,9.447-8.119-.266.953-5.767,5.677,2.751-1.77,2.64-1.567,1.023-.175.917-.062-3.387,3.2-2.888,2.685.92-.154-.381.774c.718-1.065,2.117-.75,2.952-1.74l2.03-1.2.922-.543-1.571,1.181a26.876,26.876,0,0,1-4.531,3.288l2.97-1.14c-2.227.855-3.657,2.682-5.742,3.908,2.6-1,4.257-3.338,7.283-3.222-1.342.941-2.828,1.511-4.028,2.824l2.97-1.14a27.868,27.868,0,0,1-4.77,3.109,30.154,30.154,0,0,0,9.511-4.077c-2.914,2.4-6.912,3.079-9.826,5.476a6.756,6.756,0,0,1,2.742-.626c-.371.142-.229.514-.6.656,3.113-.769,5.742-3.908,9.14-3.934-3.714,1.425-6.77,3.45-10.693,4.835Z" transform="translate(-2.673 -2.208)"/><path class="e" d="M147.7,624.1c.069.181,4.968-1.567,5.03-1.386s-3.223,1.325-3.166,1.508,2.7-.528,2.748-.342-.837.495-.792.682,6.461-1.026,6.5-.838,2.823.025,2.854.214-2.342.883-2.317,1.074,4.811.042,4.829.234-10.9,1.306-10.892,1.5,11.912-.017,11.917.174-4.559.645-4.56.837,1.156.582,1.148.774-7.694-.03-7.71.162-5.008-.257-5.03-.066.6.226.577.417.658.28.623.469.363.265.323.453,10.318,2.826,10.271,3.012-7.58-1.622-7.634-1.438,8.071,2.96,8.011,3.143-4.315-.955-4.381-.774,7.387,3.467,7.315,3.645-7.626-2.614-7.7-2.438,5.61,3.221,5.526,3.394-4.613-1.7-4.7-1.525-2.054-.609-2.149-.441-.043.471-.145.634-1.27-.331-1.377-.171,7.132,5.6,7.019,5.756-7.844-5.172-7.962-5.019-4.082-2.889-4.205-2.742,8.881,8.149,8.753,8.293-3.421-2.4-3.554-2.259,2.915,3.644,2.778,3.779-6.888-6.569-7.029-6.439-3.273-3.35-3.419-3.225,5.338,6.924,5.188,7.044-4.338-5.088-4.493-4.973-2.408-3.1-2.566-2.993.735,1.3.574,1.4.534,1.16.368,1.259,6.084,11.457,5.915,11.55-4.429-7.392-4.6-7.3,4.018,9.45,3.843,9.532-2.343-3.812-2.521-3.737-3.475-7.594-3.654-7.524,3.9,12.023,3.717,12.085-4.18-11.281-4.363-11.224.477,2.76.292,2.811,1.578,8.266,1.391,8.31-1.648-4.97-1.837-4.932-1.149-4.124-1.339-4.093.6,7.171.412,7.2-1.326-8.05-1.517-8.032-.584-5-.776-4.993-.109.142-.3.147-.224,11.287-.416,11.285-.629,2.79-.82,2.781.167-9.823-.025-9.838-.479,1.882-.67,1.861-.693,2.428-.883,2.4,1.353-9.7,1.163-9.738-2.671,11.849-2.858,11.808-.386-.493-.572-.54.788-4.434.6-4.488-2.929,7.871-3.112,7.812,3.244-10.641,3.064-10.707-4.434,10.312-4.612,10.239,2.987-8.222,2.811-8.3-.712.732-.885.647,1.172-2.968,1-3.058-2.456,3.79-2.623,3.694-3.907,5.55-4.07,5.448-1.549,1.19-1.71,1.082-.106-1.035-.262-1.148.674-1.96.521-2.078,1.44-2.675,1.292-2.8,2.293-3.332,2.149-3.46-6.892,6.737-7.031,6.6,8.5-9.314,8.362-9.452.061-.4-.069-.542,2.617-2.559,2.492-2.706-9.044,7.069-9.164,6.918,1.077-1.438.962-1.593,7.5-5.732,7.391-5.891-9.324,5.83-9.428,5.668-3.324,1.388-3.423,1.223.757-1.129.664-1.3,3.193-2.266,3.106-2.439-5.391,2-5.472,1.826,6.394-3.4,6.319-3.581,6.683-2.993,6.614-3.173-9.345,3.068-9.408,2.886,12-4.208,11.944-4.392-9.64,2.562-9.689,2.377-6.163,1.047-6.207.861,15.175-3.644,15.137-3.833-18.177,2.91-18.208,2.72,10.2-2.022,10.172-2.213,3.987-.721,3.969-.913-14.892.679-14.9.486,4.387-.828,4.382-1.02-1.007-.576-1.005-.768,1.757-.524,1.765-.717-4.7-.91-4.68-1.1,18.772,1.413,18.793,1.222-5.012-.8-4.984-.989,1.176-.02,1.211-.209-7.6-1.856-7.558-2.044.812-.267.859-.453,2.9.391,2.95.206.16-.3.22-.482-8.627-3.514-8.561-3.695,10.594,3.594,10.666,3.416-2.982-1.623-2.9-1.8,1.537.322,1.621.149-4.552-2.784-4.462-2.954.328-.4.424-.569,10.2,5.722,10.3,5.559-.185-.257-.078-.417-5.152-3.848-5.04-4,5.432,3.761,5.549,3.609-2.049-1.842-1.926-1.99.672.32.8.175-1.167-1.359-1.034-1.5,2.647,2.348,2.785,2.213-1.647-1.974-1.505-2.1-4.5-5.576-4.352-5.7.916.419,1.067.3,4,4.675,4.156,4.559-.716-1.407-.557-1.517-2.009-3.625-1.847-3.728-.033-.854.132-.952,3.444,5.376,3.612,5.283-3.134-6.68-2.962-6.767,2.882,5.115,3.058,5.034-4.26-10.76-4.082-10.835.533-.442.714-.511,3,6.641,3.18,6.578,1.693,4.062,1.876,4.006.921,2.356,1.107,2.3.128-.261.315-.3.633,2.2.822,2.162-2.205-14.141-2.016-14.172,2.055,11.228,2.246,11.2-.492-7.482-.3-7.5,1.182,11.994,1.374,11.983-.086-5.593.106-5.6.346-10.535.539-10.533.535,1.694.726,1.7.219,4.255.41,4.271-.682,9.647-.491,9.668,2.724-17.938,2.915-17.91.526.982.714,1.016-.88,7.14-.693,7.18.035,1.56.222,1.607,1.871-5.12,2.056-5.066.68-.307.863-.247,1.068-1.265,1.248-1.2S141.82,619.326,142,619.4s6.173-13.591,6.349-13.513.242.91.416,1-3.256,7.415-3.086,7.505.1.461.268.557,2.729-3.825,2.893-3.723-.01.849.15.956-3.941,6.239-3.784,6.351,6.807-8.517,6.959-8.4,1.672-1.142,1.82-1.02-.932,2-.788,2.123,1.992-1.293,2.131-1.16-.836,1.708-.7,1.846-5.6,5.909-5.466,6.05,3.883-2.941,4.009-2.794-5.608,5.061-5.488,5.212,5.731-4.012,5.846-3.858-7.917,6-7.807,6.163,2.524-1.5,2.628-1.341-.083.279.016.445-2.519,1.6-2.426,1.769,1.871-.844,1.958-.672,12.871-5.786,12.952-5.611-7.483,3.857-7.408,4.035S147.633,623.922,147.7,624.1Z" transform="translate(-6.943 -6.524)"/><path d="M152.4,609.375c1.011-.423,1.931-.644,2.805,1.476a6.6,6.6,0,0,1-.248,4.607,6.52,6.52,0,0,1-3.414-3.074C150.667,610.263,151.387,609.8,152.4,609.375Z" transform="translate(-15.597 -8.122)"/><path class="f" d="M152.136,611.251c.254-.1.381-.393.767.522a3.767,3.767,0,0,1,.241,1.843,3.865,3.865,0,0,1-1.16-1.471C151.6,611.23,151.882,611.354,152.136,611.251Z" transform="translate(-15.74 -8.572)"/><path d="M168.576,633.782c-.058,1.128-.263,2.082-2.623,1.948a6.808,6.808,0,0,1-4.169-2.286,6.718,6.718,0,0,1,4.379-1.8C168.523,631.778,168.634,632.654,168.576,633.782Z" transform="translate(-17.956 -13.122)"/><path class="f" d="M168.287,632.936c-.018.282.2.528-.828.48a3.881,3.881,0,0,1-1.819-.6,3.991,3.991,0,0,1,1.885-.422C168.547,632.445,168.305,632.654,168.287,632.936Z" transform="translate(-18.811 -13.289)"/><path d="M152.65,654.6c-.871.683-1.707,1.145-3.127-.685a6.667,6.667,0,0,1-.993-4.551,6.581,6.581,0,0,1,4.147,2.077C154.1,653.275,153.52,653.92,152.65,654.6Z" transform="translate(-15.003 -17.054)"/><path class="f" d="M153.4,653.593c-.219.168-.265.484-.886-.3a3.8,3.8,0,0,1-.729-1.729,3.9,3.9,0,0,1,1.524,1.121C153.927,653.469,153.617,653.426,153.4,653.593Z" transform="translate(-15.737 -17.541)"/><path d="M135.4,645.864c-.86-.853-1.474-1.7.32-3.487a7.3,7.3,0,0,1,4.805-1.694,7.2,7.2,0,0,1-1.693,4.783C137.043,647.254,136.263,646.717,135.4,645.864Z" transform="translate(-11.919 -15.128)"/><path class="f" d="M137.658,646.52c-.212-.216-.562-.222.209-1a4.157,4.157,0,0,1,1.778-1.025,4.262,4.262,0,0,1-1.011,1.805C137.864,647.078,137.87,646.735,137.658,646.52Z" transform="translate(-12.546 -15.973)"/><path d="M119.844,640.1c-.656-.98-1.08-1.906.979-3.267a7.1,7.1,0,0,1,4.915-.69,7.012,7.012,0,0,1-2.54,4.24C121.14,641.748,120.5,641.084,119.844,640.1Z" transform="translate(-8.534 -14.085)"/><path class="f" d="M121.985,641.009c-.161-.247-.493-.321.393-.918a4.053,4.053,0,0,1,1.9-.636,4.155,4.155,0,0,1-1.314,1.529C122.074,641.582,122.145,641.256,121.985,641.009Z" transform="translate(-9.085 -14.856)"/><path d="M118.229,623.69c.506-1.046,1.082-1.868,3.265-.8a7,7,0,0,1,3.036,3.833,6.907,6.907,0,0,1-4.868-.044C117.478,625.611,117.722,624.737,118.229,623.69Z" transform="translate(-8.218 -11.071)"/><path class="f" d="M119.155,625.782c.129-.26.026-.579.976-.124a3.983,3.983,0,0,1,1.485,1.294,4.1,4.1,0,0,1-1.954-.354C118.712,626.143,119.025,626.041,119.155,625.782Z" transform="translate(-8.466 -11.745)"/><path d="M130.738,606.293c.781-.884,1.569-1.529,3.41.115a7.106,7.106,0,0,1,1.918,4.578,7.011,7.011,0,0,1-4.748-1.377C129.479,607.966,129.957,607.177,130.738,606.293Z" transform="translate(-10.916 -7.301)"/><path class="f" d="M131.222,608.491c.2-.218.184-.558.988.146a4.048,4.048,0,0,1,1.1,1.672,4.162,4.162,0,0,1-1.814-.882C130.69,608.724,131.024,608.71,131.222,608.491Z" transform="translate(-11.124 -7.927)"/><path d="M142.323,596.054c.968-.6,1.875-.981,3.124,1.051a6.864,6.864,0,0,1,.507,4.768,6.776,6.776,0,0,1-4.012-2.588C140.695,597.252,141.356,596.655,142.323,596.054Z" transform="translate(-13.403 -5.123)"/><path class="f" d="M142.306,598.106c.244-.147.325-.465.874.409a3.913,3.913,0,0,1,.553,1.851,4.016,4.016,0,0,1-1.434-1.318C141.75,598.174,142.062,598.254,142.306,598.106Z" transform="translate(-13.566 -5.645)"/><path d="M158.668,598.269c1.179-.237,2.216-.276,2.7,2.194a7.241,7.241,0,0,1-1.263,4.9,7.151,7.151,0,0,1-3.007-4.043C156.614,598.851,157.489,598.506,158.668,598.269Z" transform="translate(-16.886 -5.697)"/><path class="f" d="M158.073,600.135c.295-.055.493-.34.712.728a4.13,4.13,0,0,1-.139,2.033,4.233,4.233,0,0,1-.929-1.833C157.5,600,157.777,600.191,158.073,600.135Z" transform="translate(-17.036 -6.118)"/><path d="M180.136,605.645c.616,1.108.988,2.138-1.338,3.414s-5.328.3-5.328.3a7.536,7.536,0,0,1,3.1-4.317C178.894,603.768,179.52,604.536,180.136,605.645Z" transform="translate(-20.548 -7.076)"/><path class="f" d="M179.125,605.536c.15.279.5.387-.5.949a4.344,4.344,0,0,1-2.087.512,4.474,4.474,0,0,1,1.543-1.521C179.08,604.913,178.974,605.257,179.125,605.536Z" transform="translate(-21.227 -7.252)"/><path d="M182.9,639.395c-.012,1.3-.2,2.408-2.923,2.368s-4.906-2.428-4.906-2.428,2.228-2.323,4.949-2.283S182.91,638.094,182.9,639.395Z" transform="translate(-20.902 -14.323)"/><path class="f" d="M182.506,638.47c-.008.325.25.6-.929.592a4.471,4.471,0,0,1-2.122-.6,4.583,4.583,0,0,1,2.148-.576C182.781,637.892,182.513,638.145,182.506,638.47Z" transform="translate(-21.875 -14.508)"/><path d="M184.53,650.607c-.315,1.219-.753,2.214-3.3,1.54s-4.04-3.426-4.04-3.426a7.483,7.483,0,0,1,5.181-.987C184.919,648.408,184.845,649.389,184.53,650.607Z" transform="translate(-21.373 -16.656)"/><path class="f" d="M184.492,649.472c-.082.3.095.621-1.011.339a4.323,4.323,0,0,1-1.852-1.059,4.438,4.438,0,0,1,2.151-.039C184.885,648.995,184.574,649.17,184.492,649.472Z" transform="translate(-22.358 -16.883)"/><path d="M173,664.879c-1.006.736-1.965,1.225-3.493-.889a7.506,7.506,0,0,1-.947-5.159,7.412,7.412,0,0,1,4.59,2.493C174.676,663.438,174,664.143,173,664.879Z" transform="translate(-19.434 -19.154)"/><path class="f" d="M173.889,663.769c-.254.181-.317.535-.988-.374a4.279,4.279,0,0,1-.755-1.973,4.392,4.392,0,0,1,1.673,1.318C174.49,663.65,174.142,663.588,173.889,663.769Z" transform="translate(-20.254 -19.728)"/><path d="M157.885,669.411c-1.25.044-2.321-.089-2.4-2.706a7.533,7.533,0,0,1,2.12-4.818,7.437,7.437,0,0,1,2.408,4.655C160.091,669.158,159.136,669.365,157.885,669.411Z" transform="translate(-16.558 -19.831)"/><path class="f" d="M159.692,668.973c-.313.007-.564.266-.609-.867a4.3,4.3,0,0,1,.485-2.064,4.406,4.406,0,0,1,.646,2.037C160.258,669.212,160,668.966,159.692,668.973Z" transform="translate(-17.356 -20.753)"/><path d="M135.547,668.416c-1.12.1-2.087.026-2.279-2.318a6.771,6.771,0,0,1,1.68-4.421,6.684,6.684,0,0,1,2.376,4.067C137.515,668.089,136.667,668.318,135.547,668.416Z" transform="translate(-11.628 -19.785)"/><path class="f" d="M137.112,667.962c-.28.021-.494.265-.586-.75a3.857,3.857,0,0,1,.339-1.875,3.965,3.965,0,0,1,.674,1.8C137.632,668.15,137.392,667.941,137.112,667.962Z" transform="translate(-12.351 -20.596)"/><path d="M122.276,668.239c-.873-.947-1.486-1.875.507-3.689s5.187-1.57,5.187-1.57-.035,3.187-2.027,5S123.148,669.187,122.276,668.239Z" transform="translate(-9.011 -20.071)"/><path class="f" d="M124.667,669c-.215-.239-.586-.263.27-1.057a4.416,4.416,0,0,1,1.938-1,4.545,4.545,0,0,1-1.16,1.871C124.859,669.6,124.882,669.236,124.667,669Z" transform="translate(-9.664 -20.951)"/><path d="M106.737,648.66c-.359-1.162-.5-2.2,1.931-2.938a7.32,7.32,0,0,1,5.057.768,7.226,7.226,0,0,1-3.759,3.438C107.532,650.666,107.1,649.822,106.737,648.66Z" transform="translate(-5.701 -16.201)"/><path class="f" d="M108.73,650.055c-.086-.291-.392-.462.659-.792a4.176,4.176,0,0,1,2.06-.068,4.294,4.294,0,0,1-1.749,1.122C108.649,650.647,108.817,650.346,108.73,650.055Z" transform="translate(-6.164 -16.995)"/><path d="M105.273,625.807c.258-1.115.632-2.03,2.962-1.478a6.89,6.89,0,0,1,3.752,3.019,6.807,6.807,0,0,1-4.686,1.019C104.971,627.816,105.015,626.922,105.273,625.807Z" transform="translate(-5.395 -11.464)"/><path class="f" d="M106.518,627.716c.068-.278-.1-.562.91-.332a3.927,3.927,0,0,1,1.708.918,4.027,4.027,0,0,1-1.954.086C106.171,628.16,106.45,627.994,106.518,627.716Z" transform="translate(-5.678 -12.16)"/><path d="M117.521,603.619c.763-.872,1.534-1.509,3.349.1a6.974,6.974,0,0,1,1.9,4.486,6.887,6.887,0,0,1-4.668-1.33C116.291,605.266,116.758,604.491,117.521,603.619Z" transform="translate(-7.988 -6.709)"/><path class="f" d="M118,605.776c.193-.215.178-.549.97.139a3.984,3.984,0,0,1,1.086,1.637,4.082,4.082,0,0,1-1.785-.857C117.482,606.007,117.81,605.992,118,605.776Z" transform="translate(-8.193 -7.325)"/><path d="M128.2,592.565c1.11-.643,2.145-1.037,3.478,1.293s.4,5.384.4,5.384-3.091-.725-4.424-3.055S127.087,593.208,128.2,592.565Z" transform="translate(-10.229 -4.346)"/><path class="f" d="M128.12,594.857c.279-.157.383-.513.969.491a4.4,4.4,0,0,1,.556,2.1,4.523,4.523,0,0,1-1.567-1.533C127.492,594.914,127.842,595.015,128.12,594.857Z" transform="translate(-10.409 -4.921)"/><path class="g" d="M173.772,592.994a13.486,13.486,0,0,1,.1,8.834,14.776,14.776,0,0,1-.611,1.551l-1.861,4.029-.261.564-.057.128-2.076,4.49a13.828,13.828,0,0,0-1.063,8.208,14.046,14.046,0,0,0,.356,1.5,11.841,11.841,0,0,0,.413,1.188,12.641,12.641,0,0,0,.744,1.572c.066.128.141.257.215.382l1.6,2.692.453.759.385.649,2.747,4.616a13.658,13.658,0,0,1,.76,1.459,13.5,13.5,0,0,1,.372,10.281c-.031.085-.064.166-.1.25a51,51,0,0,1-3.016,4.719c-.023.026-.049.049-.073.075a13.605,13.605,0,0,1-9.8,4.129,15.3,15.3,0,0,1-1.691-.1l-7.321-.862-2.766-.323c-.12-.014-.24-.027-.363-.036a12.9,12.9,0,0,0-1.549-.053,13.87,13.87,0,0,0-10.057,4.632c-.024.026-.044.051-.068.077l-3.391,3.861-.581.662-2.731,3.106a14.777,14.777,0,0,1-1.189,1.206,13.614,13.614,0,0,1-10.231,3.479c-.28-.02-.561-.053-.841-.094,0,0-.009,0-.014,0q-.941-.221-1.878-.476c-.214-.058-.43-.121-.645-.183-.325-.092-.648-.19-.971-.287l-.01,0c-.241-.095-.482-.2-.723-.319a13.53,13.53,0,0,1-7.076-8.125,13.852,13.852,0,0,1-.413-1.6l-.93-4.686-1.047-5.26a13.774,13.774,0,0,0-2.349-5.39c-.152-.206-.306-.407-.467-.6a13.748,13.748,0,0,0-4.378-3.572c-.3-.154-.6-.3-.91-.43l-.715-.309-4.975-2.129-3.637-1.56a14.231,14.231,0,0,1-1.491-.744,13.493,13.493,0,0,1-6.5-8.71l0,0c-.086-.844-.149-1.689-.2-2.531-.019-.35-.033-.695-.04-1.046,0-.113-.012-.23-.012-.344-.009-.367-.014-.736-.015-1.1,0,0,0-.007,0-.012l0,0a13.542,13.542,0,0,1,5.482-9.312,14.858,14.858,0,0,1,1.49-.956l5.27-2.951,3.594-2.014a14.042,14.042,0,0,0,1.774-1.184q.412-.325.8-.678a13.632,13.632,0,0,0,1.64-1.784c.154-.2.3-.406.446-.614a13.853,13.853,0,0,0,1.924-4.134c.047-.167.092-.338.128-.51a13.129,13.129,0,0,0,.315-1.9l.234-2.531.433-4.643.031-.331.24-2.593a14.065,14.065,0,0,1,.307-1.9A13.593,13.593,0,0,1,111,574.65c.213-.133.42-.259.639-.377,0,0,.01-.008.013-.009.4-.171.809-.335,1.218-.5.151-.062.307-.122.459-.181l.178-.068q.406-.156.817-.3c.157-.056.316-.108.474-.164.224-.082.446-.159.673-.233a.023.023,0,0,1,.016,0c.3-.072.591-.125.893-.169a13.582,13.582,0,0,1,9.954,2.305,14.4,14.4,0,0,1,1.495,1.208l4,3.688,1.694,1.561,1.762,1.628a13.867,13.867,0,0,0,6.136,3.277c.353.086.712.156,1.069.212a13.83,13.83,0,0,0,5.244-.165l1.373-.309.168-.039,1.086-.247,7.283-1.645a14.082,14.082,0,0,1,1.752-.285A13.437,13.437,0,0,1,168,585.841c.283.173.553.355.815.548.3.221.595.45.875.695a.02.02,0,0,1,.013.012q.414.461.82.938c.005,0,.008.01.009.013.535.63,1.059,1.272,1.563,1.931.041.052.081.1.118.155.122.162.244.324.367.49.1.135.206.27.305.407l0,.011a11.564,11.564,0,0,1,.521,1.057Q173.609,592.539,173.772,592.994Z"/></g></svg>