<svg xmlns="http://www.w3.org/2000/svg" xmlns:xlink="http://www.w3.org/1999/xlink" width="200.854" height="199.725" viewBox="0 0 200.854 199.725"><defs><style>.a{fill:#f98435;}.b{fill:#ffab57;}.c{fill:#fcf3de;}.d{fill:url(#a);}.e{mix-blend-mode:overlay;isolation:isolate;fill:url(#b);}.f{fill:#fff;}</style><radialGradient id="a" cx="0.5" cy="0.5" r="0.499" gradientTransform="translate(-0.003) scale(1.005 1)" gradientUnits="objectBoundingBox"><stop offset="0" stop-color="#ffab57"/><stop offset="1" stop-color="#ff7900"/></radialGradient><radialGradient id="b" cx="0.39" cy="0.354" fx="0.20881280303001404" r="0.664" gradientTransform="translate(0.006) scale(0.989 1)" gradientUnits="objectBoundingBox"><stop offset="0" stop-color="#fff"/><stop offset="1"/></radialGradient></defs><g transform="matrix(0.951, -0.309, 0.309, 0.951, -838.837, 104.617)"><path class="a" d="M974.574,323.672c-.072.239-.142.48-.219.711s-.148.48-.233.711a50.077,50.077,0,0,1-9.21,16.668,90.049,90.049,0,0,1-23.155,15.176c-.084.042-.169.077-.261.119-.471.212-.943.416-1.422.62-.112.049-.233.1-.352.141-.444.191-.894.373-1.345.55q-2.314.928-4.69,1.725c-.564.189-1.134.372-1.7.549-.156.056-.317.106-.48.148-.613.189-1.232.373-1.852.549-.711.2-1.43.4-2.147.584-.8.2-1.592.4-2.4.578q-.877.2-1.753.38c-1.169.247-2.344.465-3.535.662-.747.127-1.492.239-2.239.345a90.219,90.219,0,0,1-102.743-89.264c0-.508.008-1.008.014-1.515s.022-1.006.036-1.506c.014-.444.035-.88.056-1.317.028-.627.063-1.246.106-1.872.028-.43.063-.867.1-1.3q.221-2.716.6-5.388c.042-.281.084-.556.127-.831q.593-3.919,1.528-7.718c.07-.3.148-.6.225-.9.084-.345.177-.689.269-1.035.113-.436.232-.866.358-1.3.1-.359.2-.712.311-1.07s.211-.7.324-1.064q.654-2.112,1.416-4.183c.127-.344.253-.689.388-1.035q.6-1.585,1.267-3.155c.127-.3.261-.613.394-.916q1.024-2.344,2.183-4.627c.211-.422.43-.844.655-1.26a.026.026,0,0,1,.008-.022c.219-.416.436-.824.661-1.225s.451-.824.691-1.239a62.754,62.754,0,0,1,13.021-14.486,63.92,63.92,0,0,1,10.527-6.957c.246-.134.492-.253.739-.367.148-.07.3-.141.45-.211.008-.006.008-.006.014-.006a15.934,15.934,0,0,1,11.015-.817l.084.02a21.975,21.975,0,0,1,6.949,3.514c.289.2.584.43.867.655l.1.084a38.087,38.087,0,0,1,7.648,8.451,96.565,96.565,0,0,1,5.916,11.049c1.76,3.8,3.352,7.682,4.95,11.576a58.2,58.2,0,0,0,6.183,16.648c.6,1.07,1.232,2.119,1.9,3.133.267.408.535.81.81,1.211a60.028,60.028,0,0,0,7.344,8.74,67.024,67.024,0,0,0,11.549,9.465c.458.31.916.6,1.38.894.275.169.556.345.838.514q2.006,1.235,4.071,2.352c13.267,7.246,28.126,11.591,41.533,18.619.325.169.648.338.972.522.972.506,1.93,1.042,2.88,1.6a10.472,10.472,0,0,1,1.008.958,17.1,17.1,0,0,1,3.549,6.294c.219.536.416,1.064.592,1.592.042.113.077.231.113.345A19.033,19.033,0,0,1,974.574,323.672Z"/><path class="b" d="M973.626,323.672c-.072.239-.142.48-.219.711s-.148.48-.233.711a85.82,85.82,0,0,1-69.138,34.773c-47.377,0-85.792-38.167-85.792-85.242a84.874,84.874,0,0,1,32.111-66.491c.008-.006.008-.006.014-.006a15.934,15.934,0,0,1,11.015-.817l.084.02a21.975,21.975,0,0,1,6.949,3.514c.289.2.584.43.867.655l.1.084a38.087,38.087,0,0,1,7.648,8.451,96.565,96.565,0,0,1,5.916,11.049c1.76,3.8,3.352,7.682,4.95,11.576a58.2,58.2,0,0,0,6.183,16.648c.6,1.07,1.232,2.119,1.9,3.133.267.408.535.81.81,1.211a60.028,60.028,0,0,0,7.344,8.74,67.024,67.024,0,0,0,11.549,9.465c.458.31.916.6,1.38.894.275.169.556.345.838.514q2.006,1.235,4.071,2.352c13.267,7.246,28.126,11.591,41.533,18.619.325.169.648.338.972.522.972.506,1.93,1.042,2.88,1.6a10.472,10.472,0,0,1,1.008.958,17.1,17.1,0,0,1,3.549,6.294c.219.536.416,1.064.592,1.592.042.113.077.231.113.345A19.033,19.033,0,0,1,973.626,323.672Z" transform="translate(0.948)"/><path class="c" d="M971.361,315.407a80.054,80.054,0,0,1-68.59,38.555c-44.174,0-79.989-35.584-79.989-79.475A79.289,79.289,0,0,1,860.2,207.192a21.975,21.975,0,0,1,6.949,3.514c.289.2.584.43.867.655l.1.084a38.087,38.087,0,0,1,7.648,8.451,96.565,96.565,0,0,1,5.916,11.049c1.76,3.8,3.352,7.682,4.95,11.576a58.2,58.2,0,0,0,6.183,16.648c.6,1.07,1.232,2.119,1.9,3.133.267.408.535.81.81,1.211a60.028,60.028,0,0,0,7.344,8.74,67.024,67.024,0,0,0,11.549,9.465c.458.31.916.6,1.38.894.275.169.556.345.838.514q2.006,1.235,4.071,2.352c13.267,7.246,28.126,11.591,41.533,18.619.325.169.648.338.972.522.972.506,1.93,1.042,2.88,1.6a10.472,10.472,0,0,1,1.008.958,17.1,17.1,0,0,1,3.549,6.294c.219.536.416,1.064.592,1.592C971.291,315.174,971.325,315.293,971.361,315.407Z" transform="translate(2.213 0.14)"/><path class="d" d="M901.684,345.145c-12.641,0-21.936-3.485-21.964-5.3-.184-12.019,12.859-42,19.991-53.667l.132-.217.038-.251c.067-.448.257-1.2.55-1.2.987,0,2.917,2.047,3.128,3.319l.043.26.143.22c4.055,6.2,8.957,18.2,10.7,26.215l.045.2.106.176a53.986,53.986,0,0,1,5.287,12.925l.042.17.087.151c2.5,4.328,2.979,7.876,1.432,10.55-2.366,4.1-9.57,6.448-19.761,6.448Zm31.428-9.077a1.28,1.28,0,0,1-.81-.192c-8.543-8.508-20.147-39.07-23.185-52.384l-.056-.247-.148-.206c-.524-.728-.535-1.1-.5-1.174.079-.156.668-.5,1.891-.5a6.508,6.508,0,0,1,1.9.281c.422.277.844.55,1.272.816,0,0,.641.4.854.524,1.285.792,2.674,1.595,4.117,2.379a211.383,211.383,0,0,0,21.694,9.8c6.626,2.7,13.477,5.485,19.857,8.829.228.119.454.237.679.359,1.61,2.537,1.347,5.887-.785,9.96C954.363,324.886,938.5,336.068,933.111,336.068Zm-65.065-1.293c-10.125,0-24.472-16.041-28.089-24.388-1.054-2.431-.907-3.527-.68-3.767,8.243-8.8,38.553-21.46,51.832-24.972l.243-.064.2-.154a2.086,2.086,0,0,1,1.11-.554c.041,0,.15,0,.308.3a5.4,5.4,0,0,1-.231,4.289l-.15.217-.049.258c-1.4,7.26-6.225,19.294-10.548,26.276l-.109.176-.046.2a53.977,53.977,0,0,1-5.195,12.962l-.087.151-.042.17c-1.482,5.9-4.33,8.893-8.463,8.893ZM839.136,296.3c-9.162,0-10.237-15.85-10.35-20.707-.281-12.26,2.906-21.378,4.67-21.459.27-.013.547-.019.835-.019,12.567,0,42.4,11.815,53.783,18.212l.219.123.251.029c.587.068,1.223.252,1.233.5.038.977-1.963,2.953-3.244,3.2l-.256.05-.214.148c-6.114,4.22-18.042,9.461-26.048,11.444l-.2.049-.171.11a54.727,54.727,0,0,1-12.845,5.651l-.166.047-.148.091a14.615,14.615,0,0,1-7.348,2.53Zm52.393-30.893a5.151,5.151,0,0,1-2.6-.606l-.212-.15-.255-.051c-7.3-1.491-19.34-6.465-26.3-10.86l-.173-.109-.2-.049a54.708,54.708,0,0,1-12.97-5.348l-.15-.088-.167-.043c-5.945-1.564-8.917-4.452-8.834-8.581.21-10.392,18.192-25.673,26.392-28a37.306,37.306,0,0,1,7.009,7.861,95.279,95.279,0,0,1,5.818,10.877c1.717,3.7,3.307,7.576,4.844,11.32l.041.1a59.805,59.805,0,0,0,6.292,16.888c.689,1.219,1.326,2.269,1.949,3.211q.343.526.7,1.041c.038.153.179.688.179.688l.148.2c.542.719.56,1.088.524,1.162-.084.169-.712.54-2.03.54Z" transform="translate(3.882 1.348)"/><path class="e" d="M974.574,323.672c-.072.239-.142.48-.219.711s-.148.48-.233.711a50.077,50.077,0,0,1-9.21,16.668,90.049,90.049,0,0,1-23.155,15.176c-.084.042-.169.077-.261.119-.471.212-.943.416-1.422.62-.112.049-.233.1-.352.141-.444.191-.894.373-1.345.55q-2.314.928-4.69,1.725c-.564.189-1.134.372-1.7.549-.156.056-.317.106-.48.148-.613.189-1.232.373-1.852.549-.711.2-1.43.4-2.147.584-.8.2-1.592.4-2.4.578q-.877.2-1.753.38c-1.169.247-2.344.465-3.535.662-.747.127-1.492.239-2.239.345a90.219,90.219,0,0,1-102.743-89.264c0-.508.008-1.008.014-1.515s.022-1.006.036-1.506c.014-.444.035-.88.056-1.317.028-.627.063-1.246.106-1.872.028-.43.063-.867.1-1.3q.221-2.716.6-5.388c.042-.281.084-.556.127-.831q.593-3.919,1.528-7.718c.07-.3.148-.6.225-.9.084-.345.177-.689.269-1.035.113-.436.232-.866.358-1.3.1-.359.2-.712.311-1.07s.211-.7.324-1.064q.654-2.112,1.416-4.183c.127-.344.253-.689.388-1.035q.6-1.585,1.267-3.155c.127-.3.261-.613.394-.916q1.024-2.344,2.183-4.627c.211-.422.43-.844.655-1.26a.026.026,0,0,1,.008-.022c.219-.416.436-.824.661-1.225s.451-.824.691-1.239a62.754,62.754,0,0,1,13.021-14.486,63.92,63.92,0,0,1,10.527-6.957c.246-.134.492-.253.739-.367.148-.07.3-.141.45-.211.008-.006.008-.006.014-.006a15.934,15.934,0,0,1,11.015-.817l.084.02a21.975,21.975,0,0,1,6.949,3.514c.289.2.584.43.867.655l.1.084a38.087,38.087,0,0,1,7.648,8.451,96.565,96.565,0,0,1,5.916,11.049c1.76,3.8,3.352,7.682,4.95,11.576a58.2,58.2,0,0,0,6.183,16.648c.6,1.07,1.232,2.119,1.9,3.133.267.408.535.81.81,1.211a60.028,60.028,0,0,0,7.344,8.74,67.024,67.024,0,0,0,11.549,9.465c.458.31.916.6,1.38.894.275.169.556.345.838.514q2.006,1.235,4.071,2.352c13.267,7.246,28.126,11.591,41.533,18.619.325.169.648.338.972.522.972.506,1.93,1.042,2.88,1.6a10.472,10.472,0,0,1,1.008.958,17.1,17.1,0,0,1,3.549,6.294c.219.536.416,1.064.592,1.592.042.113.077.231.113.345A19.033,19.033,0,0,1,974.574,323.672Z"/><ellipse class="f" cx="17.253" cy="12.162" rx="17.253" ry="12.162" transform="translate(825.773 263.228) rotate(-68.088)"/><path class="f" d="M851.781,222.6a4.913,4.913,0,1,1-6.578-2.238A4.913,4.913,0,0,1,851.781,222.6Z" transform="translate(7.699 3.671)"/><path class="f" d="M853.786,217.357a2.072,2.072,0,1,1-2.775-.944A2.072,2.072,0,0,1,853.786,217.357Z" transform="translate(9.762 2.651)"/></g></svg>