<svg xmlns="http://www.w3.org/2000/svg" width="64" height="64" viewBox="0 0 64 64"><defs><style>.a,.e{fill:#f7450a;}.b{fill:#ffdf29;}.c{fill:#f7b32a;}.d{fill:#fff;}.e{opacity:0.5;}.f{fill:#ffee91;}.g{fill:#fb0;}.h{fill:#ffface;}</style></defs><g transform="translate(2811.124 -2144.436)"><circle class="a" cx="32" cy="32" r="32" transform="translate(-2811.124 2144.436)"/><circle class="b" cx="30.299" cy="30.299" r="30.299" transform="translate(-2809.423 2146.137)"/><ellipse class="c" cx="29.339" cy="29.674" rx="29.339" ry="29.674" transform="translate(-2807.502 2147.388)"/><path class="a" d="M-2758.056,2226.415a29.683,29.683,0,0,0,2.165,7.066l41.652-37.8a28.957,28.957,0,0,0-8.5-3.41Z" transform="translate(-48.99 -44.163)"/><path class="a" d="M-2546.626,2451.738l34.941-33.195a29.7,29.7,0,0,0-2.3-8.061l-39.948,38.682A28.893,28.893,0,0,0-2546.626,2451.738Z" transform="translate(-237.427 -245.601)"/><path class="a" d="M-2632.191,2296.591l-43.332,39.924a29.739,29.739,0,0,0,2.141,2.325l42.622-40.677C-2631.22,2297.623-2631.694,2297.1-2632.191,2296.591Z" transform="translate(-125.18 -140.462)"/><path class="a" d="M-2763.389,2207.432a30.149,30.149,0,0,0-.443,4.679l29.021-29.161a29.13,29.13,0,0,0-5.749.628C-2746.608,2189.769-2756.677,2200.352-2763.389,2207.432Z" transform="translate(-43.658 -35.554)"/><path class="a" d="M-2305.887,2644.281l14.875-16.041a29.729,29.729,0,0,0,1.751-6.807L-2313,2646.582A28.873,28.873,0,0,0-2305.887,2644.281Z" transform="translate(-459.84 -440.342)"/><ellipse class="d" cx="2.625" cy="2.362" rx="2.625" ry="2.362" transform="translate(-2799.628 2151.973)"/><ellipse class="e" cx="23.95" cy="25.81" rx="23.95" ry="25.81" transform="translate(-2802.468 2151.591)"/><ellipse class="f" cx="23.95" cy="24.223" rx="23.95" ry="24.223" transform="translate(-2802.468 2151.591)"/><ellipse class="b" cx="22.857" cy="23.118" rx="22.857" ry="23.118" transform="translate(-2801.375 2152.696)"/><circle class="d" cx="1.312" cy="1.312" r="1.312" transform="translate(-2763.026 2191.101)"/><path class="g" d="M-2678.789,2287.072a23.128,23.128,0,0,0,1.348,4.516l32.4-29.011a22.554,22.554,0,0,0-6-2.4Z" transform="translate(-122.165 -106.845)"/><path class="g" d="M-2554.366,2416.868a22.692,22.692,0,0,0,4.918,2.575l29.173-30.277a23.17,23.17,0,0,0-2.248-4.3Z" transform="translate(-237.027 -221.952)"/><path class="h" d="M-2661.373,2251.933l-22.881,22.6c0,.173-.013.344-.013.518a23.538,23.538,0,0,0,.19,2.934l25.827-25.827A22.764,22.764,0,0,0-2661.373,2251.933Z" transform="translate(-117.109 -99.236)"/><path class="h" d="M-2566.76,2342.862c-5.166,4.937-24.344,23.974-32.708,32.288a23.042,23.042,0,0,0,2.572,2.294l32.487-31.713A23.135,23.135,0,0,0-2566.76,2342.862Z" transform="translate(-195.39 -183.178)"/><path class="h" d="M-2378.973,2541.319l15.723-16.285a23.4,23.4,0,0,0,.758-5.915,23.559,23.559,0,0,0-.173-2.8l-22.562,25.916A22.614,22.614,0,0,0-2378.973,2541.319Z" transform="translate(-393.169 -343.304)"/></g></svg>