<svg xmlns="http://www.w3.org/2000/svg" xmlns:xlink="http://www.w3.org/1999/xlink" width="175.642" height="175.642" viewBox="0 0 175.642 175.642"><defs><style>.a{fill:#2ac7c3;}.b{fill:#d6fffe;}.c{fill:url(#a);}.d{fill:#fff;}.e{fill:#00ede7;}</style><radialGradient id="a" cx="0.5" cy="0.5" r="0.497" gradientTransform="translate(-0.052) scale(1.012 1)" gradientUnits="objectBoundingBox"><stop offset="0" stop-color="#bffffd"/><stop offset="1" stop-color="#4bf2ee"/></radialGradient></defs><g transform="translate(1385.689 -1227.284) rotate(-31)"><path class="a" d="M-1725.819,458.814c0,48.112-15.888,64-64,64s-64-15.888-64-64,15.888-64,64-64S-1725.819,410.7-1725.819,458.814Z"/><path class="b" d="M-1710.861,477.175c0,42-18.595,60.6-60.6,60.6s-60.6-18.6-60.6-60.6,18.595-60.6,60.6-60.6S-1710.86,435.172-1710.861,477.175Z" transform="translate(-18.36 -18.361)"/><path class="c" d="M-1690.192,492.12c.421,40.617-17.079,59.657-58.126,59-40.017-.64-59.653-18.436-59.243-59.046.4-39.956,19.19-59.055,59.2-59.684C-1707.354,431.748-1690.606,452.184-1690.192,492.12Z" transform="translate(-39.021 -31.692)"/><circle class="d" cx="2.67" cy="2.67" r="2.67" transform="translate(-1744.375 502.532)"/><path class="b" d="M-1668.6,519.432c-8.735-20.1-32.863-29.85-52.747-29.075-18.193.71-37.636,16.39-37.889,36.692-.276,22.224,17.474,37.685,37.869,36.9,17.1-.66,40.454-20.994,23.511-38.828-9.1-9.579-28.118-13.944-35.392.2-5.627,10.943,6.38,21.426,15.335,13.823a1.047,1.047,0,0,0-.072-1.731c-1.642-.995-6.792-3.776-5.446-6.644,2.49-5.31,12.583.284,15.113,2.256,11.458,8.934-7.484,16.722-13.6,17.483-15.47,1.922-28.824-14.417-22.8-29.958,12.316-31.759,61.318-13.564,69.759,11.887,5.057,15.247-2.677,31.243-14.354,40.219-13.092,10.064-30.432,9.338-44.6,2.451-28.564-13.885-42.444-67.948-12.583-87.905.262-.175,1.227-1.006.917-.917-22.463,6.418-24.4,27.311-23.38,45.384a61.379,61.379,0,0,0,36.6,52.99C-1693.7,601.271-1650.295,561.557-1668.6,519.432Z" transform="translate(-71.416 -77.168)"/><path class="e" d="M-1659.6,523.541c-8.048-17.608-30.277-26.15-48.6-25.47-16.762.622-34.675,14.358-34.908,32.143-.255,19.469,16.1,33.013,34.889,32.324,15.758-.578,37.271-18.391,21.661-34.015-8.384-8.391-25.905-12.216-32.607.178-5.184,9.587,5.878,18.77,14.128,12.109a.892.892,0,0,0-.066-1.516c-1.513-.872-6.257-3.308-5.018-5.821,2.294-4.652,11.593.249,13.924,1.977,10.556,7.827-6.9,14.649-12.534,15.315-14.253,1.684-26.557-12.629-21-26.244,11.348-27.822,56.494-11.882,64.271,10.413,4.659,13.357-2.466,27.369-13.225,35.233-12.062,8.816-28.037,8.18-41.09,2.147-26.4-12.2-41.017-65.3-13.161-82.637,2.081-1.295,2.247-1.221-.084-.463-18,5.858-18.586,29.892-17.624,46.122,1.225,20.664,13.164,37.53,32.3,45.347C-1682.732,595.235-1642.738,560.444-1659.6,523.541Z" transform="translate(-86.808 -79.184)"/><ellipse class="d" cx="5.339" cy="4.805" rx="5.339" ry="4.805" transform="translate(-1837.583 408.154)"/></g></svg>