<svg xmlns="http://www.w3.org/2000/svg" width="120" height="68" viewBox="0 0 120 68"><defs><style>.a{fill:#fff;}.b{fill:#1a1a1a;}</style></defs><g transform="translate(-976 -5736.286)"><rect class="a" width="120" height="68" transform="translate(976 5736.286)"/><path class="b" d="M-81.719-206.8h4.132v13.457h-4.132v-6.146h-3.249v6.146h-4.168V-206.8h4.168v5.616h3.249Zm15.823,5.863a6,6,0,0,1,.318,4.7,4.656,4.656,0,0,1-2.331,2.649,6.558,6.558,0,0,1-2.931.6,5.884,5.884,0,0,1-3.461-.989,4.883,4.883,0,0,1-1.872-2.684,5.613,5.613,0,0,1,.742-4.7,4.938,4.938,0,0,1,3.391-1.978,6.71,6.71,0,0,1,1.095-.106,6.83,6.83,0,0,1,2.437.353A4.548,4.548,0,0,1-65.9-200.937Zm-3.532,1.342a4.413,4.413,0,0,0-.247-1.589c-.212-.494-.565-1.06-1.166-1.06a.448.448,0,0,0-.212.035c-.318.071-.636.389-.918,1.024a6.8,6.8,0,0,0-.247,2.508v1.095c-.035,1.766.141,2.3.494,2.861a1.314,1.314,0,0,0,.777.565.89.89,0,0,0,.706-.212,3.289,3.289,0,0,0,.777-1.943C-69.428-196.7-69.428-198.253-69.428-199.595Zm14.022-3.532a4.252,4.252,0,0,0-3.532.141,4.6,4.6,0,0,0-1.307,1.13v-1.307H-64.13v9.819h3.885v-7.064a2.26,2.26,0,0,1,.989-.954,1.169,1.169,0,0,1,1.377.141,1.525,1.525,0,0,1,.318,1.024v6.817h3.814v-7.488A2.72,2.72,0,0,0-55.406-203.127Zm13.245,2.26a6.274,6.274,0,0,1,.6,3.214h-6.887v1.978a1.987,1.987,0,0,0,.212.6c.141.212.706,1.024,2.614.742,2.084-.318,2.049-1.837,2.084-1.837h1.66a2.735,2.735,0,0,1-.706,1.66,5.81,5.81,0,0,1-3.285,1.483,6.313,6.313,0,0,1-4.874-1.13,5.008,5.008,0,0,1-1.589-2.331,6.094,6.094,0,0,1,.353-4.309,5.333,5.333,0,0,1,5.157-2.649C-44.422-203.374-43.009-202.491-42.161-200.866Zm-3.426,1.024a7.072,7.072,0,0,0-.141-1.271v-.035a2.059,2.059,0,0,0-.53-.883,1.229,1.229,0,0,0-1.413-.106,2.087,2.087,0,0,0-.706,1.271,11.031,11.031,0,0,0-.071,1.8h2.861Zm38.639-1.024a6.274,6.274,0,0,1,.6,3.214h-6.887v1.978a1.987,1.987,0,0,0,.212.6c.141.212.706,1.024,2.614.742,2.084-.318,2.049-1.837,2.084-1.837h1.66a2.735,2.735,0,0,1-.706,1.66,5.81,5.81,0,0,1-3.285,1.483,6.313,6.313,0,0,1-4.874-1.13,5.008,5.008,0,0,1-1.589-2.331,6.094,6.094,0,0,1,.353-4.309,5.333,5.333,0,0,1,5.157-2.649C-9.173-203.374-7.8-202.491-6.948-200.866Zm-3.391,1.024a7.072,7.072,0,0,0-.141-1.271v-.035a2.059,2.059,0,0,0-.53-.883,1.229,1.229,0,0,0-1.413-.106,2.087,2.087,0,0,0-.706,1.271,8.111,8.111,0,0,0-.071,1.8h2.861Zm-8.547-3.32-1.483,5.51-1.66-5.51H-25.42l-1.483,5.51-1.7-5.51h-5.3l-1.943,4.662-1.8-4.662h-4.2l3.885,10.066a1.913,1.913,0,0,1-.071.389,3.956,3.956,0,0,1-.848,1.519,1.061,1.061,0,0,1-.989.353,1.211,1.211,0,0,0,.318-.459,1.774,1.774,0,0,0-.141-1.236,1.471,1.471,0,0,0-1.731-.636,1.582,1.582,0,0,0-1.236,1.837c.106.812.6,1.483,1.943,1.731a3.035,3.035,0,0,0,2.826-.883,7.324,7.324,0,0,0,1.307-2.3l4.1-10,2.9,9.466H-26.3l1.554-5.686,1.766,5.686H-19.8l2.684-9.819h-1.766Zm13.7,9.819h3.709V-206.8H-5.182ZM-.273-206.8v13.457H3.436V-206.8Z" transform="translate(1078.85 5968.514)"/></g></svg>