<svg xmlns="http://www.w3.org/2000/svg" width="120" height="68" viewBox="0 0 120 68"><defs><style>.a{fill:#fff;}.b{fill:#1a1a1a;}</style></defs><g transform="translate(-976 -5736.286)"><rect class="a" width="120" height="68" transform="translate(976 5736.286)"/><g transform="translate(982.857 5760.857)"><path class="b" d="M52.67,281.394c-.23-.655-1.239-.832-1.346-.85a12.767,12.767,0,0,0-2.125-.177h-.23l-.195.177.159.212c.407.071.655.106.655.106.3.071.655.212.708.443.053.319-.46.779-.637.921a12.017,12.017,0,0,1-2.337,1.381,40.15,40.15,0,0,1-4.285,1.682c-1.788.655-5.046,1.4-5.081,1.416-1.894.46-3.966.744-4.391.8a7.809,7.809,0,0,1-.425-.956,9.65,9.65,0,0,1-.531-3.417,8.553,8.553,0,0,1,.8-3.2,8.148,8.148,0,0,1,2.8-3.222,7.637,7.637,0,0,1,4.072-1.186h.195a8,8,0,0,1,4.78,1.824l.106.035h0l.177-.177-.071-.142a9.143,9.143,0,0,0-5.347-2.62c-.018,0-.319-.035-.8-.035a8.542,8.542,0,0,0-3.364.673,8.935,8.935,0,0,0-2.373,1.54,10.283,10.283,0,0,0-1.647,2.072,9.42,9.42,0,0,0-.974,2.55A9.658,9.658,0,0,0,31,285.59a9.778,9.778,0,0,0,.761,2.107c-.3.018-.6.035-.885.035a7.127,7.127,0,0,1-1.735-.159c-.372-.089-.6-.23-.655-.39a.414.414,0,0,1,.053-.354,5.872,5.872,0,0,1,1.841-1.434l.089-.266-.266-.089c-3.24,1.47-3.984,2.479-4,2.514a1.2,1.2,0,0,0-.372,1.133,1.24,1.24,0,0,0,.814.708,8.664,8.664,0,0,0,2.443.319h.23a27.05,27.05,0,0,0,3.523-.283c.195.248.407.478.62.708a8.857,8.857,0,0,0,4.851,2.6,7.775,7.775,0,0,0,1.416.124,8.124,8.124,0,0,0,3.86-.938l.071-.23-.23-.089a7.222,7.222,0,0,1-2.727.513,7.8,7.8,0,0,1-2.833-.531,7.611,7.611,0,0,1-2.479-1.54,7.475,7.475,0,0,1-.832-.885c2.443-.372,6.108-1.381,6.144-1.4,1.912-.5,4.568-1.47,4.6-1.47a31.856,31.856,0,0,0,3.807-1.611,10.144,10.144,0,0,0,3.045-2c.478-.513.637-.938.513-1.293" transform="translate(-25.792 -274.4)"/><path class="b" d="M206.915,295.093a5.453,5.453,0,0,1-1.753,4.2,6.393,6.393,0,0,1-4.515,1.594,7.141,7.141,0,0,1-5.241-2.089,7.064,7.064,0,0,1-2.107-5.188,6.827,6.827,0,0,1,2.142-5.152,7.544,7.544,0,0,1,5.4-2.054,9.294,9.294,0,0,1,3.346.6c.885.354,1.346.885,1.346,1.54,0,.921-.142,1.381-.46,1.381a.81.81,0,0,1-.372-.159l-.425-.319a5.635,5.635,0,0,0-3.453-1.115,5.164,5.164,0,0,0-3.807,1.487,5.1,5.1,0,0,0-1.487,3.807,5.326,5.326,0,0,0,1.434,3.807,4.886,4.886,0,0,0,3.683,1.5,4.425,4.425,0,0,0,3.4-1.328,3.892,3.892,0,0,0,.938-2.691v-.071h-3.24c-.283,0-.443-.089-.443-.266a2.807,2.807,0,0,1,.39-1.2c.071-.142.248-.212.513-.212h3.842c.443,0,.691.089.744.283a1.388,1.388,0,0,1,.071.46v1.186Z" transform="translate(-163.642 -284.275)"/><path class="b" d="M286.5,320.439a1.548,1.548,0,0,1-.832-.159,1.784,1.784,0,0,1-.23-.921l-.018-.089a3.98,3.98,0,0,1-3.1,1.293,2.992,2.992,0,0,1-3.329-3.222v-4.674a2.745,2.745,0,0,0-.124-.85,1.516,1.516,0,0,1-.071-.319.575.575,0,0,1,.283-.443,4.806,4.806,0,0,1,.6-.319,3.53,3.53,0,0,1,.974-.336c.212,0,.319.248.319.779v5.453c0,1.434.655,2.178,1.965,2.178,1.54,0,2.443-1.133,2.443-3.045v-3.1a2.423,2.423,0,0,0-.106-.85c-.035-.195-.089-.283-.089-.319,0-.159.106-.283.283-.425a4.337,4.337,0,0,1,.62-.336,4.554,4.554,0,0,1,.974-.336c.195,0,.283.248.283.779v6.958a4.514,4.514,0,0,0,.124,1.31,4.214,4.214,0,0,1,.142.513c.089.336-.319.478-1.115.478" transform="translate(-234.004 -304.026)"/><path class="b" d="M343.13,314.9a2.578,2.578,0,0,0-.726-1.664,2.257,2.257,0,0,0-1.647-.655,2.636,2.636,0,0,0-2.673,2.319Zm1.877,1.363a1.549,1.549,0,0,1-.5.071h-6.569a2.93,2.93,0,0,0,1.009,2.2,3.374,3.374,0,0,0,2.355.814,4.161,4.161,0,0,0,1.062-.124,8.443,8.443,0,0,0,1.771-.779.672.672,0,0,1,.319-.106c.195,0,.283.142.283.425a4.261,4.261,0,0,1-.159,1.009c-.124.354-.5.655-1.186.921a7.062,7.062,0,0,1-2.3.354,5.255,5.255,0,0,1-3.807-1.416,4.715,4.715,0,0,1-1.487-3.647,4.968,4.968,0,0,1,1.4-3.612,4.694,4.694,0,0,1,3.488-1.47,4.319,4.319,0,0,1,3.275,1.381,4.617,4.617,0,0,1,1.328,3.4c0,.3-.089.513-.283.584" transform="translate(-280.912 -304.438)"/><path class="b" d="M395.9,320.616a6.864,6.864,0,0,1-3.258-.708c-.691-.372-1.045-.673-1.045-.9a1.79,1.79,0,0,1,.425-.9q.292-.372.478-.372a.622.622,0,0,1,.3.124l.142.106a5.562,5.562,0,0,0,1.735.885,4.178,4.178,0,0,0,1.2.159c1.045,0,1.558-.372,1.558-1.133a.982.982,0,0,0-.372-.8,11.455,11.455,0,0,0-1.735-.832,8.948,8.948,0,0,1-2.3-1.292,2.275,2.275,0,0,1-.8-1.753,2.354,2.354,0,0,1,1.009-2.018,4.3,4.3,0,0,1,2.691-.779,7.229,7.229,0,0,1,2.3.336c.691.212,1.027.46,1.027.726a3.393,3.393,0,0,1-.159.6c-.159.478-.354.708-.513.708l-.23-.089a4.984,4.984,0,0,0-2.337-.708c-1.062,0-1.611.336-1.611,1.027,0,.425.443.832,1.363,1.2l1.629.69a4.655,4.655,0,0,1,1.735,1.133,2.38,2.38,0,0,1,.513,1.611c-.018,2-1.275,2.974-3.753,2.974" transform="translate(-326.833 -304.026)"/><path class="b" d="M446.07,307.307l-.018.46a.787.787,0,0,1-.319.655,3.474,3.474,0,0,1-1.788.443c-.956,0-1.576-.283-1.841-.885a3.262,3.262,0,0,1-.212-1.416v-6.126h-.673c-.212,0-.319-.089-.319-.248l.124-.266.85-1.08V297.57a1.743,1.743,0,0,1,.159-.885,2.173,2.173,0,0,1,.708-.354,5.3,5.3,0,0,1,.814-.23q.319,0,.319.744v1.983h1.54c.336,0,.5.266.5.8,0,.549-.159.814-.5.814h-1.54V306a1.484,1.484,0,0,0,.23.974.6.6,0,0,0,.478.195,1.482,1.482,0,0,0,.921-.425l.266-.142c.195,0,.266.212.266.62v.089Z" transform="translate(-367.404 -292.258)"/><path class="b" d="M475.447,289.688a.282.282,0,0,1-.319.319l-.23-.035-.443-.106a5.434,5.434,0,0,0-1.416-.159h-1.894v11.4a1.069,1.069,0,0,1-.124.655c-.089.106-.425.159-.956.159a1.932,1.932,0,0,1-.956-.159,1.269,1.269,0,0,1-.106-.655v-11.42h-1.894a5.7,5.7,0,0,0-1.416.159l-.46.106-.212.035a.282.282,0,0,1-.319-.319,4.685,4.685,0,0,1,.354-1.275.7.7,0,0,1,.549-.46,3.906,3.906,0,0,1,.779-.035h7.4c.655,0,1.045.089,1.186.248a7.5,7.5,0,0,1,.319.744,2.824,2.824,0,0,1,.159.726Z" transform="translate(-386.99 -285.51)"/><path class="b" d="M520.03,314.9a2.578,2.578,0,0,0-.726-1.664,2.257,2.257,0,0,0-1.647-.655,2.636,2.636,0,0,0-2.673,2.319Zm1.877,1.363a1.55,1.55,0,0,1-.5.071h-6.569a2.93,2.93,0,0,0,1.009,2.2,3.374,3.374,0,0,0,2.355.814,4.16,4.16,0,0,0,1.062-.124,8.445,8.445,0,0,0,1.771-.779.672.672,0,0,1,.319-.106c.195,0,.283.142.283.425a4.262,4.262,0,0,1-.159,1.009c-.124.354-.5.655-1.186.921a7.062,7.062,0,0,1-2.3.354,5.255,5.255,0,0,1-3.807-1.416,4.715,4.715,0,0,1-1.487-3.647,4.967,4.967,0,0,1,1.4-3.612,4.694,4.694,0,0,1,3.488-1.47,4.319,4.319,0,0,1,3.275,1.381,4.617,4.617,0,0,1,1.328,3.4c0,.3-.089.513-.283.584" transform="translate(-426.492 -304.438)"/><path class="b" d="M581.291,299.107a3.526,3.526,0,0,1-.938-.071,2.032,2.032,0,0,1-.567-.425l-4.409-4.444v4.161c0,.372-.089.6-.248.708a2.674,2.674,0,0,1-.744.071,3.514,3.514,0,0,1-.62-.035.429.429,0,0,1-.354-.443,1.26,1.26,0,0,1-.018-.283V286.89a3.167,3.167,0,0,0-.124-.938,1.914,1.914,0,0,1-.071-.336.527.527,0,0,1,.266-.443,3.64,3.64,0,0,1,.69-.354,5.368,5.368,0,0,1,.921-.319c.212,0,.319.248.319.779v7.9l3.931-3.523a1.635,1.635,0,0,1,1.133-.319h.655c.513,0,.8.089.8.23,0,.106-.106.248-.336.443l-4.161,3.541,4.851,4.763c.195.195.3.336.3.443-.035.23-.46.354-1.275.354" transform="translate(-476.28 -282.712)"/></g></g></svg>