<svg xmlns="http://www.w3.org/2000/svg" width="120" height="68" viewBox="0 0 120 68"><defs><style>.a{fill:none;}.b{fill:#1a1a1a;}</style></defs><g transform="translate(-976 -5736.286)"><rect class="a" width="120" height="68" transform="translate(976 5736.286)"/><g transform="translate(983 5763.286)"><path class="b" d="M-506.619,197.5a20.386,20.386,0,0,0-5.6.774v12.089a31.616,31.616,0,0,0,5.085.387c5.421,0,7.512-1.988,7.512-6.722.018-4.083-2.658-6.528-7-6.528m-2.551,2.464a14.627,14.627,0,0,1,2.409-.229c2.2,0,3.933,1.161,3.933,4.294,0,3.044-.851,4.47-4.2,4.47a18.663,18.663,0,0,1-2.144-.141Zm42.5,10.329a21.053,21.053,0,0,0,4.518.458c2.5,0,5.634-.792,5.634-3.959,0-2.059-1.63-2.939-4.288-3.854-1.435-.493-2.658-.933-2.658-1.865,0-.44.354-1.3,2.179-1.3a10.321,10.321,0,0,1,3.455.739l.762-2.112a10.989,10.989,0,0,0-4.5-.9c-2.516,0-4.961,1.249-4.961,3.766,0,2.6,2.516,3.379,4.482,3.995,1.329.422,2.463.862,2.463,1.689,0,.809-.478,1.513-2.728,1.513a22.893,22.893,0,0,1-3.809-.387Zm-6.626-2.956a10.029,10.029,0,0,1-3.738.88c-2.091,0-2.427-.88-2.427-2.9v-7.69h-.443a19.967,19.967,0,0,0-2.587.194V205.7c0,3.449.9,5.086,4.642,5.086a10.591,10.591,0,0,0,4.642-1.038,6.88,6.88,0,0,0,2.994.563V197.817c-.213-.035-1.683-.194-2.427-.194h-.6v9.714Zm-48.173-9.837a14.624,14.624,0,0,0-5.652,1.021l.656,2.129a14.944,14.944,0,0,1,4.128-.7c1.754,0,2.658.458,2.658,2.076v.915h-2.658c-4.5,0-5.829,1.936-5.829,4.065,0,2.833,2.356,3.731,4.5,3.731a9.642,9.642,0,0,0,4.128-.968,5.9,5.9,0,0,0,2.923.51v-8.992c-.018-2.71-1.807-3.783-4.854-3.783m1.807,10.294a11.423,11.423,0,0,1-3.384.721c-1.258,0-2.2-.4-2.2-1.689,0-1.126.655-1.76,2.374-1.813l3.207-.106ZM-556.1,197.5a14.624,14.624,0,0,0-5.652,1.021l.656,2.129a14.778,14.778,0,0,1,4.128-.7c1.754,0,2.658.458,2.658,2.076v.915h-2.658c-4.5,0-5.829,1.936-5.829,4.065,0,2.833,2.356,3.731,4.5,3.731a9.642,9.642,0,0,0,4.128-.968,5.9,5.9,0,0,0,2.923.51v-8.992c-.018-2.71-1.807-3.783-4.854-3.783m1.807,10.294a11.421,11.421,0,0,1-3.384.721c-1.258,0-2.2-.4-2.2-1.689,0-1.126.655-1.76,2.374-1.813l3.207-.106Zm15.237-2.675a7.265,7.265,0,0,0-.23.739c-.053-.194-.16-.546-.23-.739l-2.675-6.423c-.443-1.073-1.152-1.2-2.445-1.2-.461,0-1.382.053-1.382.053l-1.382,13h3.047l.673-8.728,2.888,6.6c.213.51.655.721,1.506.721.868,0,1.293-.211,1.506-.721l2.888-6.6.673,8.728h3.047l-1.382-13s-.921-.053-1.382-.053c-1.293,0-2,.123-2.463,1.2Zm43.088,5.033a23.8,23.8,0,0,0,5.315.6,23.633,23.633,0,0,0,4.66-.334v-2.2a22.845,22.845,0,0,1-3.809.3,17.018,17.018,0,0,1-3.136-.246v-3.132h6.024V202.92h-6.024v-2.974a19.887,19.887,0,0,1,2.941-.194,25.827,25.827,0,0,1,3.774.3v-2.235a23.115,23.115,0,0,0-4.128-.317,25.061,25.061,0,0,0-5.616.563v12.089Z" transform="translate(562.8 -197.5)"/></g></g></svg>