<svg xmlns="http://www.w3.org/2000/svg" width="64" height="64" viewBox="0 0 64 64"><defs><style>.a,.d{fill:none;}.a{stroke:#1a1a1a;opacity:0;}.b{fill:#1a1a1a;}.c{stroke:none;}</style></defs><g class="a"><rect class="c" width="64" height="64"/><rect class="d" x="0.5" y="0.5" width="63" height="63"/></g><path class="b" d="M1-1952a1,1,0,0,1-1-1,1,1,0,0,1,1-1H23a1,1,0,0,1,1,1,1,1,0,0,1-1,1Zm0-9a1,1,0,0,1-1-1,1,1,0,0,1,1-1H29a1,1,0,0,1,1,1,1,1,0,0,1-1,1Zm0-9a1,1,0,0,1-1-1,1,1,0,0,1,1-1H29a1,1,0,0,1,1,1,1,1,0,0,1-1,1Z" transform="translate(17 1994)"/></svg>