<svg xmlns="http://www.w3.org/2000/svg" width="16" height="16" viewBox="0 0 16 16"><defs><style>.a{fill:none;}.b{fill:#1a1a1a;fill-rule:evenodd;}</style></defs><rect class="a" width="16" height="16"/><path class="b" d="M10.365,12V7.634c0-.895-.275-1.791-1.391-1.791A1.608,1.608,0,0,0,7.392,7.656V12H4.415V4.006H7.392V5.082a3.086,3.086,0,0,1,2.7-1.328c1.235,0,3.243.544,3.243,3.7V12Zm-8.7-9.179A1.551,1.551,0,0,1,0,1.411,1.552,1.552,0,0,1,1.663,0,1.552,1.552,0,0,1,3.325,1.411,1.552,1.552,0,0,1,1.663,2.821ZM3.149,12H.166V4.006H3.149Z" transform="translate(1.333 2)"/></svg>