<svg id="LOGO-LEIA-INC" xmlns="http://www.w3.org/2000/svg" width="352" height="64" viewBox="0 0 352 64">
  <path id="Union_1" data-name="Union 1" d="M-341.361,226.09c-2.217-9.779,2.54-19.5,11.257-23.008,7.875-3.168,17.023-1.009,22.054,5.216a14.942,14.942,0,0,1,3.082,6.92c-1.818,0-3.537.024-5.254-.028-.224-.007-.548-.365-.638-.624-1.745-5.053-5.539-7.361-10.618-7.716a12.878,12.878,0,0,0-12.817,6.725c-4.256,7.252-1.541,17.409,5.614,20.86a13.9,13.9,0,0,0,12,.166,9.81,9.81,0,0,0,5.589-6.021c.276-.806.636-1.179,1.534-1.135,1.45.073,2.906.02,4.637.02-1.625,6.822-5.713,10.962-12.149,12.767a20.671,20.671,0,0,1-5.585.778A19,19,0,0,1-341.361,226.09Zm-231.593,11.638c-9.445-4.872-13.289-13.181-12.754-23.557.763-14.809,13.063-24.306,28.143-22.973,13.783,1.219,21.734,12.033,21.627,24.373-.01,1.071-.09,2.143-.06,3.212.035,1.234-.438,1.637-1.723,1.631-11.153-.052-22.306-.03-33.458-.03h-1.97a13.037,13.037,0,0,0,10.622,8.935,18.291,18.291,0,0,0,14.592-3.576c.274-.2.536-.422.8-.632.225-.177.452-.352.782-.608l7.506,8.064a23.815,23.815,0,0,1-7.488,5.166,33.759,33.759,0,0,1-13.78,3.177A27.658,27.658,0,0,1-572.954,237.728Zm11.923-35.913c-5.7.286-11.22,4.377-11.59,8.617h23.843c-.945-5.04-5.914-8.634-11.578-8.634Q-560.692,201.8-561.031,201.815Zm80.9,33.183c-13.4-11.917-10.141-34.836,5.982-42,6.174-2.743,16.175-3.335,23.789,3.533v-4.245H-438.4v47.508H-450.3v-4.278a2.907,2.907,0,0,0-.733.313,20.082,20.082,0,0,1-13.635,4.89A23.365,23.365,0,0,1-480.133,235Zm10.987-30.822a13.7,13.7,0,0,0-5.407,17.67,13.63,13.63,0,0,0,17.065,6.755,10.174,10.174,0,0,0,7.139-10.154v-2.483a36.269,36.269,0,0,1,.023-3.65,6.737,6.737,0,0,0-1.526-4.73,12.871,12.871,0,0,0-10.525-5.184A13.7,13.7,0,0,0-469.146,204.176Zm174,31.834a4,4,0,0,1,4-4,4,4,0,0,1,4,4,4,4,0,0,1-4,4A4,4,0,0,1-295.146,236.01Zm-344,3.845V192.209h13.1V227.78h28.809v12.074ZM-518,239.8V202.79h12.278V239.8Zm158.919,0c0-.637,0-1.206,0-1.776-.028-6.719-.031-13.438-.111-20.156a14.034,14.034,0,0,0-.562-3.59,10.543,10.543,0,0,0-11.2-7.686,15.152,15.152,0,0,0-11.306,5.852,4.284,4.284,0,0,0-.9,2.471c-.068,7.694-.04,15.388-.04,23.082v1.8h-5.354V202.842h5.371v4.228a17.617,17.617,0,0,1,8.96-5.036c5.631-1.118,10.974-.715,15.474,3.38a15.694,15.694,0,0,1,5.136,11.7c.152,7.35.04,14.706.034,22.059a3.8,3.8,0,0,1-.113.623Zm-51.323-.011V192.272h5.607V239.79Zm-94.86-47.572q-6.718-.08-13.436,0a1.72,1.72,0,0,1-1.8-1.083,9.645,9.645,0,0,1,5.677-13.711c.364-.118.715-.273,1.072-.41h3.507a25.73,25.73,0,0,1,4.576,2.425,9.318,9.318,0,0,1,2.185,11.652,1.738,1.738,0,0,1-1.741,1.13Z" transform="translate(639.146 -177.01)" fill="#ffffff"/>
</svg>
