<svg id="logo-LUMEPAD-hos" xmlns="http://www.w3.org/2000/svg" xmlns:xlink="http://www.w3.org/1999/xlink" width="136" height="36" viewBox="0 0 136 36">
  <defs>
    <linearGradient id="linear-gradient" x1="0.04" y1="0.5" x2="0.967" y2="0.429" gradientUnits="objectBoundingBox">
      <stop offset="0" stop-color="#ff9f5c"/>
      <stop offset="0.485" stop-color="#ffc828"/>
      <stop offset="1" stop-color="#ff9f5c"/>
    </linearGradient>
  </defs>
  <g id="Groupe_188" data-name="Groupe 188" transform="translate(0 0)">
    <path id="Tracé_1108" data-name="Tracé 1108" d="M220.654,696.108v2.311h-10.89V682.7h2.5v13.411Z" transform="translate(-209.764 -682.697)" fill="#1a1a1a"/>
    <path id="Tracé_1109" data-name="Tracé 1109" d="M236.754,691.506c0,4.417-2.751,7.191-6.89,7.191-4.115,0-6.891-2.774-6.891-7.191V682.7h2.5v8.809c0,2.891,1.757,4.879,4.393,4.879s4.416-1.988,4.416-4.879V682.7h2.474Z" transform="translate(-205.655 -682.697)" fill="#1a1a1a"/>
    <path id="Tracé_1110" data-name="Tracé 1110" d="M254.409,698.419h-2.474V688.177l-4.67,7.583h-1.55L241,688.108l.046,10.311h-2.5V682.7h1.8l6.127,9.989,6.128-9.989h1.8Z" transform="translate(-200.811 -682.697)" fill="#1a1a1a"/>
    <path id="Tracé_1111" data-name="Tracé 1111" d="M258.931,684.986v4.509h7.861v2.289h-7.861v4.324h8.785v2.311H256.433V682.7h11.283v2.289Z" transform="translate(-195.248 -682.697)" fill="#1a1a1a"/>
  </g>
  <path id="Tracé_1112" data-name="Tracé 1112" d="M8.822-24.48H2.916v16H5.457V-13.3H8.469c4,0,6.635-2.282,6.635-5.718C15.1-22.292,12.61-24.48,8.822-24.48Zm-.071,8.847H5.457v-6.518H8.751c2.306,0,3.859,1.271,3.859,3.129C12.61-17,11.057-15.633,8.751-15.633ZM30.94-8.48h2.706l-7.059-16H24.21l-7.082,16h2.706l1.647-3.835h7.812Zm-8.518-6.094,2.965-6.894,2.941,6.894Zm22.4-9.906H38.916v16h5.906c4.918,0,8.494-3.412,8.494-8.094C53.316-21.139,49.74-24.48,44.822-24.48Zm0,13.647H41.457V-22.151h3.365a5.645,5.645,0,0,1,5.929,5.576A5.706,5.706,0,0,1,44.822-10.833Z" transform="translate(82.684 24.48)" fill="#1a1a1a"/>
  <path id="Tracé_1113" data-name="Tracé 1113" d="M-130.288-8.168V-4.8h-4.318V-8.168h-1.306V-.44h1.306V-3.667h4.318V-.44h1.294V-8.168Zm7.6-.136a4.132,4.132,0,0,0-4.281,4,4.132,4.132,0,0,0,4.281,4,4.132,4.132,0,0,0,4.281-4A4.132,4.132,0,0,0-122.693-8.3Zm0,6.853A2.879,2.879,0,0,1-125.656-4.3a2.888,2.888,0,0,1,2.963-2.864A2.888,2.888,0,0,1-119.73-4.3,2.879,2.879,0,0,1-122.693-1.451Zm9.155-6.853c-1.826,0-3.036.909-3.036,2.318,0,1.136.714,1.875,2.25,2.148l1.439.261c.968.159,1.294.58,1.294,1.045,0,.716-.665,1.136-1.742,1.136-1.306,0-2.129-.58-2.286-1.557h-1.294c.157,1.659,1.5,2.648,3.507,2.648,1.887,0,3.145-.932,3.145-2.375,0-1.193-.883-1.807-2.419-2.091l-1.149-.216c-.883-.159-1.367-.477-1.367-1.091,0-.75.689-1.17,1.742-1.17,1.2,0,1.79.5,1.935,1.318h1.282C-110.429-7.713-112.026-8.3-113.538-8.3Zm8.309.136h-3.036V-.44h1.306V-2.77h1.548c2.056,0,3.411-1.1,3.411-2.761C-102-7.111-103.282-8.168-105.229-8.168Zm-.036,4.273h-1.693V-7.043h1.693c1.185,0,1.983.614,1.983,1.511C-103.282-4.554-104.08-3.895-105.265-3.895Zm4.838-4.273V-.44h1.306V-8.168Zm9.941,0h-7.124v1.125h2.915v6.6H-93.4v-6.6h2.915ZM-83.713-.44h1.391l-3.628-7.728h-1.222L-90.812-.44h1.391l.847-1.852h4.015Zm-4.378-2.943,1.524-3.33,1.512,3.33Zm8.659,1.807V-8.168h-1.306V-.44h5.7V-1.576Zm6.023-6.591V-.44H-72.1V-8.168Zm9.941,0h-7.124v1.125h2.915v6.6h1.294v-6.6h2.915Zm7.341,0-2.552,3.909-2.54-3.909h-1.439l3.326,5.091V-.44h1.318V-3.077l3.326-5.091ZM-43.8-7.043V-8.168h-5.9V-.44h5.9V-1.576h-4.6V-3.7h4.112V-4.827H-48.4V-7.043Zm4.971-1.125h-3.036V-.44h3.036c2.528,0,4.366-1.648,4.366-3.909C-34.465-6.554-36.3-8.168-38.831-8.168Zm0,6.591h-1.729V-7.043h1.729a2.829,2.829,0,0,1,3.048,2.693A2.854,2.854,0,0,1-38.831-1.576Zm6.374-6.591V-.44h1.306V-8.168Zm9.941,0H-29.64v1.125h2.915v6.6h1.294v-6.6h2.915Zm1.512,0V-.44H-19.7V-8.168ZM-13.4-8.3a4.132,4.132,0,0,0-4.281,4A4.132,4.132,0,0,0-13.4-.3a4.132,4.132,0,0,0,4.281-4A4.132,4.132,0,0,0-13.4-8.3Zm0,6.853A2.879,2.879,0,0,1-16.36-4.3,2.888,2.888,0,0,1-13.4-7.168,2.888,2.888,0,0,1-10.434-4.3,2.879,2.879,0,0,1-13.4-1.451ZM-1.206-8.168V-2.6L-6.1-8.168h-1V-.44H-5.8V-5.895L-.952-.44H.088V-8.168Z" transform="translate(135.912 36.304)" fill="url(#linear-gradient)"/>
</svg>
