<svg xmlns="http://www.w3.org/2000/svg" width="372" height="64" viewBox="0 0 372 64">
  <g id="logo-woohoo" transform="translate(0)">
    <path id="Tracé_127" data-name="Tracé 127" d="M334.557,543.458c-4.593-1.118-9.419-1.674-13.733-3.464-10.856-4.5-18.567-12.176-20.728-24.169-1.646-9.129,1.219-17.222,7.593-23.762,10.932-11.218,24.185-15.452,39.329-10.639,11.253,3.577,17.874,11.966,20.206,23.493,2.864,14.155-3.206,27.668-15.241,34.454a30.338,30.338,0,0,1-11.362,3.689c-.791.1-1.573.264-2.359.4Zm-1.848-14.4c9.087.023,15.312-3.7,18.338-10.259,2.956-6.4,2.156-12.584-2.111-18.113-7.445-9.647-22.861-9.126-30.555.9a15.656,15.656,0,0,0,.772,20.679A19.61,19.61,0,0,0,332.709,529.055Z" transform="translate(-24.549 -479.458)"/>
    <path id="Tracé_128" data-name="Tracé 128" d="M-442.971,480.1a8.52,8.52,0,0,1,2.4-.65c2.586.078,5.166.354,7.751.5a2.4,2.4,0,0,1,2.482,2.2c2.053,9.205,4.182,18.394,6.292,27.586.131.571.312,1.129.615,2.212.686-1.637,1.177-2.8,1.66-3.961q5.28-12.725,10.554-25.452c.411-.993.762-1.919,2.15-1.892a2.821,2.821,0,0,1,2.881,2.048c3.71,9.071,7.508,18.106,11.284,27.151.227.543.518,1.059,1.027,2.09,1.022-4.09,1.9-7.645,2.8-11.2,1.324-5.257,2.679-10.507,3.97-15.772.313-1.274.925-1.951,2.3-1.85,2.767.2,5.541.313,8.3.573,1.987.187,2.316.773,1.77,2.7q-6.522,23.041-13.047,46.082c-.57,2.017-1.1,4.046-1.623,6.076-.337,1.308-.719,2.411-2.42,2.556-1.665.142-2.112-.909-2.615-2.07q-6.727-15.526-13.464-31.049c-.217-.5-.457-.989-.848-1.829-1.112,2.62-2.123,4.918-3.068,7.244-3.761,9.251-7.482,18.519-11.279,27.755a11.38,11.38,0,0,1-1.72,2.3h-1.852a12.013,12.013,0,0,1-1.223-2.4q-5.827-22.86-11.578-45.739c-1.131-4.462-2.329-8.907-3.5-13.36Z" transform="translate(442.971 -479.452)"/>
    <path id="Tracé_130" data-name="Tracé 130" d="M174.672,499.777c14.53-.084,24.731,10.006,25.109,23.491.316,11.245-5.711,20.564-15.519,24.062-13.385,4.774-32.467-3.621-35.758-18.853-1.754-8.117,1.2-14.847,6.933-20.4A28.825,28.825,0,0,1,174.672,499.777Zm-.916,37.987c8.265-.021,14.418-5.853,14.513-13.01a13.1,13.1,0,0,0-6.683-12.178c-4.754-2.809-9.694-2.561-14.457.011-7.325,3.954-9.77,12.1-5.548,18.267A15.333,15.333,0,0,0,173.756,537.764Z" transform="translate(70.917 -492.237)"/>
    <path id="Tracé_131" data-name="Tracé 131" d="M-236.455,499.656c10.419.44,18.407,3.95,24.244,11.655a20.651,20.651,0,0,1-.256,26.044c-6.725,8.389-15.686,12.009-26.308,10.923-10.874-1.112-18.733-9.7-20.114-21.4-1.384-11.715,5.389-22.7,16.226-26.064A46.029,46.029,0,0,1-236.455,499.656Zm2.415,37.973c7.987-.024,14.879-6.243,14.906-13.45s-7.074-13.635-15.023-13.6A13.594,13.594,0,0,0-247.609,524.2,13.4,13.4,0,0,0-234.04,537.629Z" transform="translate(327.193 -492.161)"/>
    <path id="Tracé_132" data-name="Tracé 132" d="M32.115,533.848c0,4.058,0,8.053,0,12.049,0,2.813-.09,2.9-2.954,2.687-2.214-.166-4.424-.391-6.64-.532a1.606,1.606,0,0,1-1.741-1.87q.029-16.2,0-32.406c0-1.124.419-1.722,1.591-1.8,2.646-.181,5.289-.405,7.932-.626,1.4-.117,1.837.587,1.822,1.889-.039,3.456-.012,6.913-.011,10.37v2.06c3.018,0,5.785.025,8.55-.006,3.454-.039,6.906-.161,10.36-.17,1.252,0,1.715-.412,1.691-1.719-.075-3.949.038-7.9-.057-11.85-.041-1.693.642-2.327,2.247-2.4,2.4-.1,4.8-.287,7.2-.5,1.388-.124,1.876.47,1.874,1.806q-.03,19.166,0,38.332c0,1.36-.519,1.929-1.867,1.826q-3.875-.3-7.754-.541c-1.393-.087-1.69-.93-1.682-2.141.028-4.259-.007-8.519.023-12.778.007-1-.127-1.62-1.372-1.627-6.046-.034-12.09-.141-18.136-.212A7.966,7.966,0,0,0,32.115,533.848Z" transform="translate(151.011 -498.043)"/>
    <path id="Tracé_133" data-name="Tracé 133" d="M-111.734,531.071c.033-15,13.552-24.082,28.059-18.847a25.437,25.437,0,0,1,10.666,7.09c6.01,6.8,6.486,15.63.76,22.654-5.88,7.211-13.747,10.4-22.98,9.21C-105.109,549.9-111.757,541.52-111.734,531.071Zm21.068,11.3c6.777-.028,12.745-5.256,12.735-11.156-.01-6.166-5.979-11.45-12.881-11.4a11.345,11.345,0,0,0-11.237,11.366A11.256,11.256,0,0,0-90.666,542.371Z" transform="translate(234.436 -499.128)"/>
    <path id="Tracé_1114" data-name="Tracé 1114" d="M-11.1-27.72A9.938,9.938,0,0,0-21.12-17.678,9.893,9.893,0,0,0-11.1-7.72a9.884,9.884,0,0,0,9.98-9.958A9.929,9.929,0,0,0-11.1-27.72ZM-11.14-9.928a7.722,7.722,0,0,1-7.586-7.75A7.7,7.7,0,0,1-11.14-25.47a7.765,7.765,0,0,1,7.627,7.792A7.783,7.783,0,0,1-11.14-9.928ZM-7.205-19.3a3.166,3.166,0,0,0-3.448-3.167h-3.732v9H-12.6v-2.792h1.5l1.947,2.792h2.231l-2.231-3.042A2.91,2.91,0,0,0-7.205-19.3Zm-5.4-1.458h1.947a1.454,1.454,0,0,1,1.623,1.417,1.461,1.461,0,0,1-1.623,1.458H-12.6Z" transform="translate(373.12 27.72)" fill="#1a1a1a"/>
  </g>
</svg>
